<svg version="1.1" viewBox="0.0 0.0 960.0 540.0" fill="none" stroke="none" stroke-linecap="square" stroke-miterlimit="10" xmlns:xlink="http://www.w3.org/1999/xlink" xmlns="http://www.w3.org/2000/svg"><clipPath id="g70fab05c46_0_58.0"><path d="m0 0l960.0 0l0 540.0l-960.0 0l0 -540.0z" clip-rule="nonzero"/></clipPath><g clip-path="url(#g70fab05c46_0_58.0)"><path fill="#fcfcfc" d="m0 0l960.0 0l0 540.0l-960.0 0z" fill-rule="evenodd"/><path fill="#666666" d="m237.06036 537.92914l0 -336.40945l235.05511 0l0 336.40945z" fill-rule="evenodd"/><path stroke="#999999" stroke-width="4.0" stroke-linejoin="round" stroke-linecap="butt" d="m237.06036 537.92914l0 -336.40945l235.05511 0l0 336.40945z" fill-rule="evenodd"/><path fill="#ffffff" d="m342.5973 449.16776l0 9.75l26.390625 0l0 2.390625l-26.390625 0l0 9.734375l-2.046875 0l0 -21.875l2.046875 0zm26.390625 -6.6679688l0 2.34375l-21.140625 0l0 -2.34375l21.140625 0zm-27.25 2.765625q-0.65625 0 -1.109375 -0.421875q-0.46875 -0.4375 -0.46875 -1.171875q0 -0.75 0.46875 -1.1875q0.453125 -0.453125 1.125 -0.453125q0.65625 0 1.109375 0.453125q0.4375 0.4375 0.4375 1.1875q0 0.734375 -0.4375 1.171875q-0.453125 0.421875 -1.125 0.421875zm6.109375 -11.230469l3.4375 -0.078125q-1.90625 -1.171875 -2.859375 -2.921875q-0.96875 -1.765625 -0.96875 -3.921875q0 -5.0 4.109375 -6.34375q-1.96875 -1.140625 -3.03125 -3.03125q-1.078125 -1.890625 -1.078125 -4.171875q0 -6.796875 7.421875 -6.9375l14.109375 0l0 2.34375l-13.921875 0q-2.84375 0.015625 -4.203125 1.21875q-1.375 1.203125 -1.375 3.921875q0.046875 2.515625 1.640625 4.25q1.59375 1.734375 3.875 1.9375l13.984375 0l0 2.34375l-14.109375 0q-2.703125 0.015625 -4.046875 1.28125q-1.34375 1.25 -1.34375 3.875q0 2.203125 1.265625 3.796875q1.265625 1.578125 3.734375 2.328125l14.5 0l0 2.34375l-21.140625 0l0 -2.234375zm21.53125 -41.51172q0 2.703125 -1.328125 4.875q-1.328125 2.171875 -3.703125 3.390625q-2.375 1.203125 -5.328125 1.203125l-0.828125 0q-3.046875 0 -5.484375 -1.171875q-2.453125 -1.1875 -3.84375 -3.296875q-1.40625 -2.109375 -1.40625 -4.5625q0 -3.859375 2.640625 -6.109375q2.625 -2.25 7.171875 -2.25l1.3125 0l0 15.078125l0.4375 0q3.59375 0 6.0 -2.0625q2.390625 -2.0625 2.390625 -5.1875q0 -1.875 -0.6875 -3.3125q-0.6875 -1.4375 -2.1875 -2.609375l1.109375 -1.46875q3.734375 2.578125 3.734375 7.484375zm-19.921875 0.4375q0 2.625 1.9375 4.4375q1.921875 1.8125 5.1875 2.203125l0 -12.6875l-0.25 0q-3.046875 0.109375 -4.953125 1.75q-1.921875 1.640625 -1.921875 4.296875zm7.96875 -20.179688l0 9.359375l-1.96875 0l0 -9.359375l1.96875 0zm6.1875 -16.835938q-1.734375 0 -2.78125 1.40625q-1.0625 1.390625 -1.65625 4.203125q-0.59375 2.8125 -1.359375 4.359375q-0.78125 1.546875 -1.890625 2.3125q-1.125 0.75 -2.703125 0.75q-2.5 0 -4.125 -2.09375q-1.640625 -2.09375 -1.640625 -5.359375q0 -3.53125 1.75 -5.671875q1.75 -2.140625 4.5625 -2.140625l0 2.34375q-1.859375 0 -3.078125 1.5625q-1.234375 1.546875 -1.234375 3.90625q0 2.3125 1.03125 3.71875q1.015625 1.390625 2.65625 1.390625q1.578125 0 2.453125 -1.15625q0.875 -1.171875 1.59375 -4.25q0.71875 -3.078125 1.546875 -4.609375q0.8125 -1.53125 1.96875 -2.265625q1.15625 -0.75 2.796875 -0.75q2.671875 0 4.28125 2.15625q1.59375 2.15625 1.59375 5.640625q0 3.6875 -1.78125 5.984375q-1.796875 2.296875 -4.53125 2.296875l0 -2.34375q2.046875 -0.140625 3.203125 -1.734375q1.140625 -1.59375 1.140625 -4.203125q0 -2.453125 -1.078125 -3.953125q-1.078125 -1.5 -2.71875 -1.5zm5.765625 -15.785156q0 2.703125 -1.328125 4.875q-1.328125 2.171875 -3.703125 3.390625q-2.375 1.203125 -5.328125 1.203125l-0.828125 0q-3.046875 0 -5.484375 -1.171875q-2.453125 -1.1875 -3.84375 -3.296875q-1.40625 -2.109375 -1.40625 -4.5625q0 -3.859375 2.640625 -6.109375q2.625 -2.25 7.171875 -2.25l1.3125 0l0 15.078125l0.4375 0q3.59375 0 6.0 -2.0625q2.390625 -2.0625 2.390625 -5.1875q0 -1.875 -0.6875 -3.3125q-0.6875 -1.4375 -2.1875 -2.609375l1.109375 -1.46875q3.734375 2.578125 3.734375 7.484375zm-19.921875 0.4375q0 2.625 1.9375 4.4375q1.921875 1.8125 5.1875 2.203125l0 -12.6875l-0.25 0q-3.046875 0.109375 -4.953125 1.75q-1.921875 1.640625 -1.921875 4.296875zm0.390625 -22.679688q-0.140625 0.734375 -0.140625 1.578125q0 2.1875 1.21875 3.703125q1.21875 1.515625 3.546875 2.15625l14.515625 0l0 2.328125l-21.140625 0l0 -2.28125l3.359375 -0.046875q-3.75 -1.859375 -3.75 -5.953125q0 -0.984375 0.265625 -1.546875l2.125 0.0625zm19.140625 -6.3164062l0 2.34375l-21.140625 0l0 -2.34375l21.140625 0zm-27.25 2.765625q-0.65625 0 -1.109375 -0.421875q-0.46875 -0.4375 -0.46875 -1.171875q0 -0.75 0.46875 -1.1875q0.453125 -0.453125 1.125 -0.453125q0.65625 0 1.109375 0.453125q0.4375 0.4375 0.4375 1.1875q0 0.734375 -0.4375 1.171875q-0.453125 0.421875 -1.125 0.421875zm27.640625 -17.292969q0 2.703125 -1.328125 4.875q-1.328125 2.171875 -3.703125 3.390625q-2.375 1.203125 -5.328125 1.203125l-0.828125 0q-3.046875 0 -5.484375 -1.171875q-2.453125 -1.1875 -3.84375 -3.296875q-1.40625 -2.109375 -1.40625 -4.5625q0 -3.859375 2.640625 -6.109375q2.625 -2.25 7.171875 -2.25l1.3125 0l0 15.078125l0.4375 0q3.59375 0 6.0 -2.0625q2.390625 -2.0625 2.390625 -5.1875q0 -1.875 -0.6875 -3.3125q-0.6875 -1.4375 -2.1875 -2.609375l1.109375 -1.46875q3.734375 2.578125 3.734375 7.484375zm-19.921875 0.4375q0 2.625 1.9375 4.4375q1.921875 1.8125 5.1875 2.203125l0 -12.6875l-0.25 0q-3.046875 0.109375 -4.953125 1.75q-1.921875 1.640625 -1.921875 4.296875zm14.15625 -25.570282q-1.734375 0 -2.78125 1.40625q-1.0625 1.390625 -1.65625 4.203125q-0.59375 2.8125 -1.359375 4.359375q-0.78125 1.5468445 -1.890625 2.3124695q-1.125 0.75 -2.703125 0.75q-2.5 0 -4.125 -2.09375q-1.640625 -2.0937195 -1.640625 -5.3593445q0 -3.53125 1.75 -5.671875q1.75 -2.140625 4.5625 -2.140625l0 2.34375q-1.859375 0 -3.078125 1.5625q-1.234375 1.546875 -1.234375 3.90625q0 2.3125 1.03125 3.71875q1.015625 1.3905945 2.65625 1.3905945q1.578125 0 2.453125 -1.1562195q0.875 -1.171875 1.59375 -4.25q0.71875 -3.078125 1.546875 -4.609375q0.8125 -1.53125 1.96875 -2.265625q1.15625 -0.75 2.796875 -0.75q2.671875 0 4.28125 2.15625q1.59375 2.15625 1.59375 5.640625q0 3.6875 -1.78125 5.9843445q-1.796875 2.296875 -4.53125 2.296875l0 -2.34375q2.046875 -0.140625 3.203125 -1.7343445q1.140625 -1.59375 1.140625 -4.203125q0 -2.453125 -1.078125 -3.953125q-1.078125 -1.5 -2.71875 -1.5z" fill-rule="nonzero"/><path fill="#666666" d="m487.8714 537.92804l0 -336.4095l235.77954 0l0 336.4095z" fill-rule="evenodd"/><path stroke="#999999" stroke-width="4.0" stroke-linejoin="round" stroke-linecap="butt" d="m487.8714 537.92804l0 -336.4095l235.77954 0l0 336.4095z" fill-rule="evenodd"/><path fill="#ffffff" d="m612.19244 458.6315l0 12.921875l7.96875 2.921875l0 2.515625l-28.4375 -10.75l0 -2.296875l28.4375 -10.75l0 2.5l-7.96875 2.9375zm-2.046875 12.171875l0 -11.40625l-15.5 5.703125l15.5 5.703125zm-0.34375 -38.246094q4.953125 0 7.859375 2.1875q2.890625 2.1875 2.890625 5.859375q0 4.34375 -3.046875 6.640625l10.78125 0l0 2.328125l-29.265625 0l0 -2.171875l3.0 -0.109375q-3.390625 -2.28125 -3.390625 -6.625q0 -3.78125 2.875 -5.9375q2.875 -2.171875 7.96875 -2.171875l0.328125 0zm-0.40625 2.34375q-4.046875 0 -6.390625 1.671875q-2.34375 1.65625 -2.34375 4.625q0 2.140625 1.046875 3.6875q1.03125 1.546875 3.0 2.359375l10.140625 0q1.8125 -0.828125 2.78125 -2.390625q0.953125 -1.5625 0.953125 -3.703125q0 -2.9375 -2.359375 -4.59375q-2.359375 -1.65625 -6.828125 -1.65625zm0.40625 -24.511719q4.953125 0 7.859375 2.1875q2.890625 2.1875 2.890625 5.859375q0 4.34375 -3.046875 6.640625l10.78125 0l0 2.328125l-29.265625 0l0 -2.171875l3.0 -0.109375q-3.390625 -2.28125 -3.390625 -6.625q0 -3.78125 2.875 -5.9375q2.875 -2.171875 7.96875 -2.171875l0.328125 0zm-0.40625 2.34375q-4.046875 0 -6.390625 1.671875q-2.34375 1.65625 -2.34375 4.625q0 2.140625 1.046875 3.6875q1.03125 1.546875 3.0 2.359375l10.140625 0q1.8125 -0.828125 2.78125 -2.390625q0.953125 -1.5625 0.953125 -3.703125q0 -2.9375 -2.359375 -4.59375q-2.359375 -1.65625 -6.828125 -1.65625zm10.765625 -10.136719l0 2.34375l-30.0 0l0 -2.34375l30.0 0zm0 -8.964844l0 2.34375l-21.140625 0l0 -2.34375l21.140625 0zm-27.25 2.765625q-0.65625 0 -1.109375 -0.421875q-0.46875 -0.4375 -0.46875 -1.171875q0 -0.75 0.46875 -1.1875q0.453125 -0.453125 1.125 -0.453125q0.65625 0 1.109375 0.453125q0.4375 0.4375 0.4375 1.1875q0 0.734375 -0.4375 1.171875q-0.453125 0.421875 -1.125 0.421875zm25.671875 -16.917969q0 -2.4375 -1.375 -4.09375q-1.390625 -1.65625 -3.578125 -1.78125l0 -2.25q1.9375 0.09375 3.53125 1.21875q1.59375 1.109375 2.5 2.953125q0.890625 1.84375 0.890625 3.953125q0 4.15625 -2.890625 6.59375q-2.890625 2.421875 -7.78125 2.421875l-0.703125 0q-3.125 0 -5.515625 -1.09375q-2.40625 -1.09375 -3.71875 -3.125q-1.3125 -2.046875 -1.3125 -4.78125q0 -3.46875 2.078125 -5.71875q2.0625 -2.265625 5.453125 -2.421875l0 2.25q-2.484375 0.15625 -4.0 1.78125q-1.53125 1.625 -1.53125 4.109375q0 3.171875 2.28125 4.921875q2.28125 1.734375 6.40625 1.734375l0.6875 0q4.046875 0 6.3125 -1.734375q2.265625 -1.75 2.265625 -4.9375zm1.578125 -26.136719q-1.0 0.359375 -2.953125 0.453125q1.609375 1.234375 2.484375 3.140625q0.859375 1.890625 0.859375 4.03125q0 3.046875 -1.703125 4.9375q-1.703125 1.875 -4.296875 1.875q-3.078125 0 -4.875 -2.5625q-1.796875 -2.578125 -1.796875 -7.171875l0 -4.234375l-2.40625 0q-2.265625 0 -3.5625 1.40625q-1.296875 1.390625 -1.296875 4.0625q0 2.4375 1.25 4.046875q1.25 1.59375 3.0 1.59375l-0.015625 2.34375q-2.515625 0 -4.359375 -2.34375q-1.859375 -2.34375 -1.859375 -5.75q0 -3.546875 1.78125 -5.578125q1.765625 -2.046875 4.921875 -2.109375l10.0 0q3.0625 0 4.59375 -0.640625l0.234375 0l0 2.5zm-1.6875 7.34375q0 -2.34375 -1.125 -4.1875q-1.140625 -1.84375 -3.03125 -2.6875l-4.640625 0l0 4.1875q0.03125 3.484375 1.28125 5.46875q1.234375 1.96875 3.40625 1.96875q1.765625 0 2.9375 -1.3125q1.171875 -1.328125 1.171875 -3.4375zm-24.859375 -19.066406l5.40625 0l0 -4.375l1.921875 0l0 4.375l14.078125 0q1.765625 0 2.625 -0.625q0.859375 -0.640625 0.859375 -2.125q0 -0.578125 -0.203125 -1.890625l1.921875 -0.09375q0.328125 0.90625 0.328125 2.5q0 2.390625 -1.390625 3.484375q-1.40625 1.09375 -4.125 1.09375l-14.09375 0l0 3.890625l-1.921875 0l0 -3.890625l-5.40625 0l0 -2.34375zm26.546875 -11.8359375l0 2.34375l-21.140625 0l0 -2.34375l21.140625 0zm-27.25 2.765625q-0.65625 0 -1.109375 -0.421875q-0.46875 -0.4375 -0.46875 -1.171875q0 -0.75 0.46875 -1.1875q0.453125 -0.453125 1.125 -0.453125q0.65625 0 1.109375 0.453125q0.4375 0.4375 0.4375 1.1875q0 0.734375 -0.4375 1.171875q-0.453125 0.421875 -1.125 0.421875zm16.375 -7.8242188q-3.046875 0 -5.484375 -1.171875q-2.453125 -1.1875 -3.8125 -3.34375q-1.359375 -2.15625 -1.359375 -4.890625q0 -4.21875 2.96875 -6.828125q2.953125 -2.625 7.84375 -2.625l0.484375 0q3.0625 0 5.515625 1.1875q2.453125 1.171875 3.78125 3.328125q1.328125 2.140625 1.328125 4.890625q0 4.203125 -2.953125 6.828125q-2.96875 2.625 -7.84375 2.625l-0.46875 0zm0.640625 -2.34375q3.78125 0 6.21875 -1.953125q2.4375 -1.96875 2.4375 -5.15625q0 -3.15625 -2.4375 -5.109375q-2.4375 -1.96875 -6.421875 -1.96875l-0.4375 0q-2.421875 0 -4.4375 0.90625q-2.015625 0.890625 -3.109375 2.515625q-1.109375 1.609375 -1.109375 3.703125q0 3.125 2.453125 5.09375q2.453125 1.96875 6.40625 1.96875l0.4375 0zm-10.90625 -23.574219l3.625 -0.078125q-1.953125 -1.1875 -2.984375 -2.953125q-1.03125 -1.78125 -1.03125 -3.9375q0 -3.390625 1.921875 -5.046875q1.90625 -1.671875 5.734375 -1.6875l13.875 0l0 2.328125l-13.890625 0q-2.828125 0.015625 -4.21875 1.203125q-1.390625 1.171875 -1.390625 3.765625q0 2.171875 1.359375 3.84375q1.359375 1.671875 3.671875 2.46875l14.46875 0l0 2.328125l-21.140625 0l0 -2.234375zm15.765625 -32.39453q-1.734375 0 -2.78125 1.40625q-1.0625 1.390625 -1.65625 4.203125q-0.59375 2.8125 -1.359375 4.359375q-0.78125 1.546875 -1.890625 2.3125q-1.125 0.75 -2.703125 0.75q-2.5 0 -4.125 -2.09375q-1.640625 -2.09375 -1.640625 -5.359375q0 -3.53125 1.75 -5.671875q1.75 -2.140625 4.5625 -2.140625l0 2.34375q-1.859375 0 -3.078125 1.5625q-1.234375 1.546875 -1.234375 3.90625q0 2.3125 1.03125 3.71875q1.015625 1.390625 2.65625 1.390625q1.578125 0 2.453125 -1.15625q0.875 -1.171875 1.59375 -4.25q0.71875 -3.078125 1.546875 -4.609375q0.8125 -1.53125 1.96875 -2.265625q1.15625 -0.75 2.796875 -0.75q2.671875 0 4.28125 2.15625q1.59375 2.15625 1.59375 5.640625q0 3.6875 -1.78125 5.984375q-1.796875 2.296875 -4.53125 2.296875l0 -2.34375q2.046875 -0.140625 3.203125 -1.734375q1.140625 -1.59375 1.140625 -4.203125q0 -2.453125 -1.078125 -3.953125q-1.078125 -1.5 -2.71875 -1.5z" fill-rule="nonzero"/><path fill="#6aa84f" d="m237.06084 2.9055116l486.61414 0l0 178.45668l-486.61414 0z" fill-rule="evenodd"/><path stroke="#d9ead3" stroke-width="4.0" stroke-linejoin="round" stroke-linecap="butt" d="m237.06084 2.9055116l486.61414 0l0 178.45668l-486.61414 0z" fill-rule="evenodd"/><path fill="#ffffff" d="m374.33276 106.53385l0 -28.4375l7.953125 0q3.5 0 6.265625 1.59375q2.78125 1.59375 4.328125 4.5625q1.546875 2.96875 1.546875 6.75l0 2.625q0 3.796875 -1.546875 6.75q-1.53125 2.953125 -4.34375 4.5625q-2.796875 1.59375 -6.421875 1.59375l-7.78125 0zm2.40625 -26.390625l0 24.359375l5.390625 0q4.484375 0 7.203125 -2.96875q2.71875 -2.984375 2.71875 -8.0625l0 -2.5q0 -4.90625 -2.6875 -7.859375q-2.671875 -2.953125 -7.046875 -2.96875l-5.578125 0zm36.58203 26.390625q-0.359375 -1.0 -0.453125 -2.953125q-1.234375 1.609375 -3.140625 2.484375q-1.890625 0.859375 -4.03125 0.859375q-3.046875 0 -4.9375 -1.703125q-1.875 -1.703125 -1.875 -4.296875q0 -3.078125 2.5625 -4.875q2.578125 -1.796875 7.171875 -1.796875l4.234375 0l0 -2.40625q0 -2.265625 -1.40625 -3.5625q-1.390625 -1.296875 -4.0625 -1.296875q-2.4375 0 -4.046875 1.25q-1.59375 1.25 -1.59375 3.0l-2.34375 -0.015625q0 -2.515625 2.34375 -4.359375q2.34375 -1.859375 5.75 -1.859375q3.546875 0 5.578125 1.78125q2.046875 1.765625 2.109375 4.921875l0 10.0q0 3.0625 0.640625 4.59375l0 0.234375l-2.5 0zm-7.34375 -1.6875q2.34375 0 4.1875 -1.125q1.84375 -1.140625 2.6875 -3.03125l0 -4.640625l-4.1875 0q-3.484375 0.03125 -5.46875 1.28125q-1.96875 1.234375 -1.96875 3.40625q0 1.765625 1.3125 2.9375q1.328125 1.171875 3.4375 1.171875zm19.066406 -24.859375l0 5.40625l4.375 0l0 1.921875l-4.375 0l0 14.078125q0 1.765625 0.625 2.625q0.640625 0.859375 2.125 0.859375q0.578125 0 1.890625 -0.203125l0.09375 1.921875q-0.90625 0.328125 -2.5 0.328125q-2.390625 0 -3.484375 -1.390625q-1.09375 -1.40625 -1.09375 -4.125l0 -14.09375l-3.890625 0l0 -1.921875l3.890625 0l0 -5.40625l2.34375 0zm22.554688 26.546875q-0.359375 -1.0 -0.453125 -2.953125q-1.234375 1.609375 -3.140625 2.484375q-1.890625 0.859375 -4.03125 0.859375q-3.046875 0 -4.9375 -1.703125q-1.875 -1.703125 -1.875 -4.296875q0 -3.078125 2.5625 -4.875q2.578125 -1.796875 7.171875 -1.796875l4.234375 0l0 -2.40625q0 -2.265625 -1.40625 -3.5625q-1.390625 -1.296875 -4.0625 -1.296875q-2.4375 0 -4.046875 1.25q-1.59375 1.25 -1.59375 3.0l-2.34375 -0.015625q0 -2.515625 2.34375 -4.359375q2.34375 -1.859375 5.75 -1.859375q3.546875 0 5.578125 1.78125q2.046875 1.765625 2.109375 4.921875l0 10.0q0 3.0625 0.640625 4.59375l0 0.234375l-2.5 0zm-7.34375 -1.6875q2.34375 0 4.1875 -1.125q1.84375 -1.140625 2.6875 -3.03125l0 -4.640625l-4.1875 0q-3.484375 0.03125 -5.46875 1.28125q-1.96875 1.234375 -1.96875 3.40625q0 1.765625 1.3125 2.9375q1.328125 1.171875 3.4375 1.171875zm41.79297 -5.3125q0 -2.359375 -1.65625 -3.734375q-1.65625 -1.375 -6.078125 -2.609375q-4.40625 -1.25 -6.4375 -2.71875q-2.890625 -2.0625 -2.890625 -5.421875q0 -3.265625 2.671875 -5.296875q2.6875 -2.046875 6.875 -2.046875q2.828125 0 5.0625 1.09375q2.234375 1.09375 3.46875 3.046875q1.234375 1.953125 1.234375 4.359375l-2.421875 0q0 -2.921875 -2.0 -4.6875q-1.984375 -1.765625 -5.34375 -1.765625q-3.265625 0 -5.203125 1.453125q-1.921875 1.453125 -1.921875 3.796875q0 2.171875 1.734375 3.546875q1.734375 1.359375 5.5625 2.40625q3.828125 1.046875 5.796875 2.171875q1.984375 1.125 2.96875 2.6875q1.0 1.5625 1.0 3.6875q0 3.359375 -2.6875 5.390625q-2.6875 2.03125 -7.078125 2.03125q-3.0 0 -5.515625 -1.078125q-2.515625 -1.078125 -3.8125 -3.0q-1.296875 -1.9375 -1.296875 -4.4375l2.40625 0q0 3.0 2.234375 4.75q2.25 1.734375 5.984375 1.734375q3.328125 0 5.328125 -1.46875q2.015625 -1.46875 2.015625 -3.890625zm15.238281 7.390625q-2.703125 0 -4.875 -1.328125q-2.171875 -1.328125 -3.390625 -3.703125q-1.203125 -2.375 -1.203125 -5.328125l0 -0.828125q0 -3.046875 1.171875 -5.484375q1.1875 -2.453125 3.296875 -3.84375q2.109375 -1.40625 4.5625 -1.40625q3.859375 0 6.109375 2.640625q2.25 2.625 2.25 7.171875l0 1.3125l-15.078125 0l0 0.4375q0 3.59375 2.0625 6.0q2.0625 2.390625 5.1875 2.390625q1.875 0 3.3125 -0.6875q1.4375 -0.6875 2.609375 -2.1875l1.46875 1.109375q-2.578125 3.734375 -7.484375 3.734375zm-0.4375 -19.921875q-2.625 0 -4.4375 1.9375q-1.8125 1.921875 -2.203125 5.1875l12.6875 0l0 -0.25q-0.109375 -3.046875 -1.75 -4.953125q-1.640625 -1.921875 -4.296875 -1.921875zm22.679688 0.390625q-0.734375 -0.140625 -1.578125 -0.140625q-2.1875 0 -3.703125 1.21875q-1.515625 1.21875 -2.15625 3.546875l0 14.515625l-2.328125 0l0 -21.140625l2.28125 0l0.046875 3.359375q1.859375 -3.75 5.953125 -3.75q0.984375 0 1.546875 0.265625l-0.0625 2.125zm10.621094 15.921875l6.4375 -17.921875l2.390625 0l-7.890625 21.140625l-1.890625 0l-7.921875 -21.140625l2.390625 0l6.484375 17.921875zm15.285156 3.21875l-2.34375 0l0 -21.140625l2.34375 0l0 21.140625zm-2.765625 -27.25q0 -0.65625 0.421875 -1.109375q0.4375 -0.46875 1.171875 -0.46875q0.75 0 1.1875 0.46875q0.453125 0.453125 0.453125 1.125q0 0.65625 -0.453125 1.109375q-0.4375 0.4375 -1.1875 0.4375q-0.734375 0 -1.171875 -0.4375q-0.421875 -0.453125 -0.421875 -1.125zm16.917969 25.671875q2.4375 0 4.09375 -1.375q1.65625 -1.390625 1.78125 -3.578125l2.25 0q-0.09375 1.9375 -1.21875 3.53125q-1.109375 1.59375 -2.953125 2.5q-1.84375 0.890625 -3.953125 0.890625q-4.15625 0 -6.59375 -2.890625q-2.421875 -2.890625 -2.421875 -7.78125l0 -0.703125q0 -3.125 1.09375 -5.515625q1.09375 -2.40625 3.125 -3.71875q2.046875 -1.3125 4.78125 -1.3125q3.46875 0 5.71875 2.078125q2.265625 2.0625 2.421875 5.453125l-2.25 0q-0.15625 -2.484375 -1.78125 -4.0q-1.625 -1.53125 -4.109375 -1.53125q-3.171875 0 -4.921875 2.28125q-1.734375 2.28125 -1.734375 6.40625l0 0.6875q0 4.046875 1.734375 6.3125q1.75 2.265625 4.9375 2.265625zm20.980469 1.96875q-2.703125 0 -4.875 -1.328125q-2.171875 -1.328125 -3.390625 -3.703125q-1.203125 -2.375 -1.203125 -5.328125l0 -0.828125q0 -3.046875 1.171875 -5.484375q1.1875 -2.453125 3.296875 -3.84375q2.109375 -1.40625 4.5625 -1.40625q3.859375 0 6.109375 2.640625q2.25 2.625 2.25 7.171875l0 1.3125l-15.078125 0l0 0.4375q0 3.59375 2.0625 6.0q2.0625 2.390625 5.1875 2.390625q1.875 0 3.3125 -0.6875q1.4375 -0.6875 2.609375 -2.1875l1.46875 1.109375q-2.578125 3.734375 -7.484375 3.734375zm-0.4375 -19.921875q-2.625 0 -4.4375 1.9375q-1.8125 1.921875 -2.203125 5.1875l12.6875 0l0 -0.25q-0.109375 -3.046875 -1.75 -4.953125q-1.640625 -1.921875 -4.296875 -1.921875z" fill-rule="nonzero"/></g></svg>