<svg version="1.1" viewBox="0.0 0.0 960.0 540.0" fill="none" stroke="none" stroke-linecap="square"
     stroke-miterlimit="10"
     xmlns="http://www.w3.org/2000/svg">
    <clipPath id="g70fab05c46_0_0.0">
        <path d="m0 0l960.0 0l0 540.0l-960.0 0l0 -540.0z" clip-rule="nonzero"/>
    </clipPath>
    <g clip-path="url(#g70fab05c46_0_0.0)">
        <path fill="#fcfcfc" d="m0 0l960.0 0l0 540.0l-960.0 0z" fill-rule="evenodd"/>
        <path fill="#3c78d8" d="m182.31616 2.503937l595.37006 0l0 84.25197l-595.37006 0z" fill-rule="evenodd"/>
        <path stroke="#a4c2f4" stroke-width="4.0" stroke-linejoin="round" stroke-linecap="butt"
              d="m182.31616 2.503937l595.37006 0l0 84.25197l-595.37006 0z" fill-rule="evenodd"/>
        <path fill="#ffffff"
              d="m394.22775 49.256172q-0.390625 3.59375 -2.578125 5.5q-2.171875 1.90625 -5.796875 1.90625q-2.53125 0 -4.484375 -1.265625q-1.9375 -1.265625 -3.0 -3.578125q-1.0625 -2.328125 -1.078125 -5.3125l0 -2.953125q0 -3.03125 1.0625 -5.375q1.0625 -2.34375 3.046875 -3.609375q2.0 -1.28125 4.59375 -1.28125q3.65625 0 5.765625 1.984375q2.125 1.96875 2.46875 5.453125l-1.9375 0q-0.71875 -5.796875 -6.296875 -5.796875q-3.09375 0 -4.9375 2.3125q-1.828125 2.3125 -1.828125 6.390625l0 2.78125q0 3.9375 1.78125 6.28125q1.796875 2.34375 4.84375 2.34375q3.015625 0 4.546875 -1.4375q1.53125 -1.453125 1.890625 -4.34375l1.9375 0zm10.78125 7.40625q-2.15625 0 -3.90625 -1.0625q-1.734375 -1.0625 -2.703125 -2.953125q-0.96875 -1.90625 -0.96875 -4.265625l0 -0.671875q0 -2.4375 0.9375 -4.390625q0.953125 -1.953125 2.640625 -3.0625q1.6875 -1.125 3.65625 -1.125q3.078125 0 4.875 2.109375q1.8125 2.09375 1.8125 5.734375l0 1.046875l-12.0625 0l0 0.359375q0 2.875 1.640625 4.796875q1.65625 1.90625 4.15625 1.90625q1.5 0 2.640625 -0.546875q1.15625 -0.546875 2.09375 -1.75l1.171875 0.890625q-2.0625 2.984375 -5.984375 2.984375zm-0.34375 -15.9375q-2.109375 0 -3.5625 1.546875q-1.4375 1.546875 -1.75 4.15625l10.140625 0l0 -0.203125q-0.078125 -2.4375 -1.390625 -3.96875q-1.3125 -1.53125 -3.4375 -1.53125zm12.109375 -1.28125l0.0625 2.890625q0.953125 -1.5625 2.375 -2.375q1.421875 -0.828125 3.140625 -0.828125q2.71875 0 4.046875 1.53125q1.328125 1.53125 1.34375 4.59375l0 11.09375l-1.859375 0l0 -11.109375q-0.015625 -2.265625 -0.96875 -3.375q-0.9375 -1.109375 -3.015625 -1.109375q-1.734375 0 -3.078125 1.09375q-1.328125 1.078125 -1.96875 2.921875l0 11.578125l-1.859375 0l0 -16.90625l1.78125 0zm18.703125 -4.328125l0 4.328125l3.5 0l0 1.53125l-3.5 0l0 11.265625q0 1.40625 0.5 2.09375q0.515625 0.6875 1.703125 0.6875q0.46875 0 1.515625 -0.15625l0.078125 1.53125q-0.734375 0.265625 -2.0 0.265625q-1.921875 0 -2.796875 -1.109375q-0.875 -1.125 -0.875 -3.296875l0 -11.28125l-3.109375 0l0 -1.53125l3.109375 0l0 -4.328125l1.875 0zm15.1875 5.921875q-0.59375 -0.109375 -1.265625 -0.109375q-1.75 0 -2.96875 0.984375q-1.203125 0.96875 -1.71875 2.828125l0 11.609375l-1.859375 0l0 -16.90625l1.828125 0l0.03125 2.6875q1.484375 -3.0 4.765625 -3.0q0.78125 0 1.234375 0.203125l-0.046875 1.703125zm13.0 15.3125q-0.28125 -0.796875 -0.359375 -2.359375q-0.984375 1.28125 -2.515625 1.984375q-1.515625 0.6875 -3.21875 0.6875q-2.4375 0 -3.953125 -1.359375q-1.5 -1.359375 -1.5 -3.4375q0 -2.46875 2.046875 -3.90625q2.0625 -1.4375 5.734375 -1.4375l3.390625 0l0 -1.921875q0 -1.8125 -1.125 -2.84375q-1.109375 -1.046875 -3.25 -1.046875q-1.953125 0 -3.234375 1.0q-1.28125 1.0 -1.28125 2.40625l-1.875 -0.015625q0 -2.015625 1.875 -3.484375q1.875 -1.484375 4.609375 -1.484375q2.828125 0 4.453125 1.421875q1.640625 1.40625 1.6875 3.9375l0 8.0q0 2.453125 0.515625 3.671875l0 0.1875l-2.0 0zm-5.875 -1.34375q1.875 0 3.34375 -0.90625q1.484375 -0.90625 2.15625 -2.421875l0 -3.71875l-3.34375 0q-2.796875 0.03125 -4.375 1.03125q-1.578125 0.984375 -1.578125 2.71875q0 1.421875 1.046875 2.359375q1.0625 0.9375 2.75 0.9375zm14.4375 1.34375l-1.875 0l0 -24.0l1.875 0l0 24.0zm26.171875 -5.59375q0 -1.890625 -1.328125 -2.984375q-1.328125 -1.109375 -4.859375 -2.09375q-3.53125 -1.0 -5.15625 -2.171875q-2.3125 -1.65625 -2.3125 -4.34375q0 -2.609375 2.140625 -4.234375q2.15625 -1.640625 5.5 -1.640625q2.265625 0 4.046875 0.875q1.796875 0.875 2.78125 2.4375q0.984375 1.5625 0.984375 3.484375l-1.9375 0q0 -2.328125 -1.59375 -3.734375q-1.59375 -1.421875 -4.28125 -1.421875q-2.609375 0 -4.15625 1.171875q-1.546875 1.15625 -1.546875 3.03125q0 1.734375 1.390625 2.828125q1.390625 1.09375 4.453125 1.9375q3.0625 0.828125 4.640625 1.734375q1.578125 0.890625 2.375 2.140625q0.796875 1.25 0.796875 2.953125q0 2.6875 -2.15625 4.3125q-2.140625 1.625 -5.65625 1.625q-2.40625 0 -4.421875 -0.859375q-2.0 -0.859375 -3.046875 -2.40625q-1.03125 -1.546875 -1.03125 -3.546875l1.921875 0q0 2.40625 1.796875 3.796875q1.796875 1.390625 4.78125 1.390625q2.65625 0 4.265625 -1.171875q1.609375 -1.171875 1.609375 -3.109375zm12.1875 5.90625q-2.15625 0 -3.90625 -1.0625q-1.734375 -1.0625 -2.703125 -2.953125q-0.96875 -1.90625 -0.96875 -4.265625l0 -0.671875q0 -2.4375 0.9375 -4.390625q0.953125 -1.953125 2.640625 -3.0625q1.6875 -1.125 3.65625 -1.125q3.0780945 0 4.8749695 2.109375q1.8125 2.09375 1.8125 5.734375l0 1.046875l-12.0624695 0l0 0.359375q0 2.875 1.640625 4.796875q1.65625 1.90625 4.15625 1.90625q1.4999695 0 2.6405945 -0.546875q1.15625 -0.546875 2.09375 -1.75l1.171875 0.890625q-2.0625 2.984375 -5.9843445 2.984375zm-0.34375 -15.9375q-2.109375 0 -3.5625 1.546875q-1.4375 1.546875 -1.75 4.15625l10.1405945 0l0 -0.203125q-0.078125 -2.4375 -1.390625 -3.96875q-1.3125 -1.53125 -3.4374695 -1.53125zm18.140594 0.3125q-0.59375 -0.109375 -1.265625 -0.109375q-1.75 0 -2.96875 0.984375q-1.203125 0.96875 -1.71875 2.828125l0 11.609375l-1.859375 0l0 -16.90625l1.828125 0l0.03125 2.6875q1.484375 -3.0 4.765625 -3.0q0.78125 0 1.234375 0.203125l-0.046875 1.703125zm8.5 12.734375l5.140625 -14.328125l1.921875 0l-6.3125 16.90625l-1.515625 0l-6.34375 -16.90625l1.921875 0l5.1875 14.328125zm12.21875 2.578125l-1.875 0l0 -16.90625l1.875 0l0 16.90625zm-2.203125 -21.796875q0 -0.53125 0.34375 -0.890625q0.34375 -0.375 0.9375 -0.375q0.59375 0 0.9375 0.375q0.359375 0.359375 0.359375 0.890625q0 0.53125 -0.359375 0.890625q-0.34375 0.359375 -0.9375 0.359375q-0.59375 0 -0.9375 -0.359375q-0.34375 -0.359375 -0.34375 -0.890625zm13.53125 20.53125q1.953125 0 3.265625 -1.09375q1.328125 -1.109375 1.4375 -2.859375l1.796875 0q-0.078125 1.546875 -0.96875 2.828125q-0.890625 1.265625 -2.375 1.984375q-1.46875 0.71875 -3.15625 0.71875q-3.328125 0 -5.28125 -2.3125q-1.9375 -2.3125 -1.9375 -6.21875l0 -0.5625q0 -2.5 0.875 -4.421875q0.875 -1.921875 2.5 -2.96875q1.640625 -1.046875 3.828125 -1.046875q2.78125 0 4.578125 1.65625q1.8125 1.65625 1.9375 4.359375l-1.796875 0q-0.125 -1.984375 -1.4375 -3.203125q-1.296875 -1.21875 -3.28125 -1.21875q-2.53125 0 -3.9375 1.828125q-1.390625 1.828125 -1.390625 5.125l0 0.546875q0 3.234375 1.390625 5.046875q1.40625 1.8125 3.953125 1.8125zm16.78125 1.578125q-2.15625 0 -3.90625 -1.0625q-1.734375 -1.0625 -2.703125 -2.953125q-0.96875 -1.90625 -0.96875 -4.265625l0 -0.671875q0 -2.4375 0.9375 -4.390625q0.953125 -1.953125 2.640625 -3.0625q1.6875 -1.125 3.65625 -1.125q3.078125 0 4.875 2.109375q1.8125 2.09375 1.8125 5.734375l0 1.046875l-12.0625 0l0 0.359375q0 2.875 1.640625 4.796875q1.65625 1.90625 4.15625 1.90625q1.5 0 2.640625 -0.546875q1.15625 -0.546875 2.09375 -1.75l1.171875 0.890625q-2.0625 2.984375 -5.984375 2.984375zm-0.34375 -15.9375q-2.109375 0 -3.5625 1.546875q-1.4375 1.546875 -1.75 4.15625l10.140625 0l0 -0.203125q-0.078125 -2.4375 -1.390625 -3.96875q-1.3125 -1.53125 -3.4375 -1.53125z"
              fill-rule="nonzero"/>
        <path fill="#666666" d="m182.31496 537.4934l0 -438.67712l55.77954 0l0 438.67712z" fill-rule="evenodd"/>
        <path stroke="#999999" stroke-width="4.0" stroke-linejoin="round" stroke-linecap="butt"
              d="m182.31496 537.4934l0 -438.67712l55.77954 0l0 438.67712z" fill-rule="evenodd"/>
        <path fill="#ffffff"
              d="m211.7841 341.7486q3.140625 0 5.515625 1.09375q2.375 1.078125 3.65625 3.09375q1.28125 2.015625 1.28125 4.65625q0 3.984375 -2.84375 6.4375q-2.859375 2.453125 -7.703125 2.453125l-2.34375 0q-3.109375 0 -5.5 -1.09375q-2.40625 -1.109375 -3.6875 -3.125q-1.296875 -2.015625 -1.296875 -4.640625q0 -2.625 1.265625 -4.625q1.265625 -2.015625 3.578125 -3.109375q2.3125 -1.09375 5.359375 -1.140625l2.71875 0zm-2.46875 1.921875q-4.109375 0 -6.4375 1.859375q-2.328125 1.859375 -2.328125 5.09375q0 3.171875 2.34375 5.0625q2.328125 1.875 6.515625 1.875l2.375 0q4.046875 0 6.421875 -1.875q2.359375 -1.875 2.359375 -5.09375q0 -3.265625 -2.328125 -5.09375q-2.34375 -1.828125 -6.515625 -1.828125l-2.40625 0zm6.234375 -18.71875l0 10.328125l6.375 2.34375l0 2.015625l-22.75 -8.609375l0 -1.828125l22.75 -8.609375l0 2.0l-6.375 2.359375zm-1.640625 9.734375l0 -9.125l-12.390625 4.5625l12.390625 4.5625zm5.875 -27.703125q2.453125 1.6875 2.453125 5.390625q0 2.703125 -1.5625 4.109375q-1.578125 1.40625 -4.65625 1.4375l-11.0 0l0 -1.859375l10.765625 0q4.828125 0 4.828125 -3.90625q0 -4.0625 -3.359375 -5.140625l-12.234375 0l0 -1.875l16.90625 0l0 1.8125l-2.140625 0.03125zm-19.09375 -9.609375l4.328125 0l0 -3.5l1.53125 0l0 3.5l11.265625 0q1.40625 0 2.09375 -0.5q0.6875 -0.515625 0.6875 -1.703125q0 -0.46875 -0.15625 -1.515625l1.53125 -0.078125q0.265625 0.734375 0.265625 2.0q0 1.921875 -1.109375 2.796875q-1.125 0.875 -3.296875 0.875l-11.28125 0l0 3.109375l-1.53125 0l0 -3.109375l-4.328125 0l0 -1.875zm7.1875 -9.234375q-1.515625 -0.921875 -2.34375 -2.359375q-0.828125 -1.4375 -0.828125 -3.140625q0 -2.7187195 1.53125 -4.0468445q1.53125 -1.328125 4.59375 -1.34375l11.09375 0l0 1.859375l-11.109375 0q-2.265625 0.015625 -3.375 0.96875q-1.109375 0.9375 -1.109375 3.0155945q0 1.734375 1.09375 3.078125q1.078125 1.328125 2.921875 1.96875l11.578125 0l0 1.859375l-24.0 0l0 -1.859375l9.953125 0z"
              fill-rule="nonzero"/>
        <path fill="#666666" d="m249.7593 537.4934l0 -438.67712l55.779526 0l0 438.67712z" fill-rule="evenodd"/>
        <path stroke="#999999" stroke-width="4.0" stroke-linejoin="round" stroke-linecap="butt"
              d="m249.7593 537.4934l0 -438.67712l55.779526 0l0 438.67712z" fill-rule="evenodd"/>
        <path fill="#ffffff"
              d="m268.25967 359.6861l0 7.796875l21.109375 0l0 1.921875l-21.109375 0l0 7.78125l-1.640625 0l0 -17.5l1.640625 0zm21.109375 -12.140625q-0.796875 0.28125 -2.359375 0.359375q1.28125 0.984375 1.984375 2.515625q0.6875 1.515625 0.6875 3.21875q0 2.4375 -1.359375 3.953125q-1.359375 1.5 -3.4375 1.5q-2.46875 0 -3.90625 -2.046875q-1.4375 -2.0625 -1.4375 -5.734375l0 -3.390625l-1.921875 0q-1.8125 0 -2.84375 1.125q-1.046875 1.109375 -1.046875 3.25q0 1.953125 1.0 3.234375q1.0 1.28125 2.40625 1.28125l-0.015625 1.875q-2.015625 0 -3.484375 -1.875q-1.484375 -1.875 -1.484375 -4.609375q0 -2.828125 1.421875 -4.453125q1.40625 -1.640625 3.9375 -1.6875l8.0 0q2.453125 0 3.671875 -0.515625l0.1875 0l0 2.0zm-1.34375 5.875q0 -1.875 -0.90625 -3.34375q-0.90625 -1.484375 -2.421875 -2.15625l-3.71875 0l0 3.34375q0.03125 2.796875 1.03125 4.375q0.984375 1.578125 2.71875 1.578125q1.421875 0 2.359375 -1.046875q0.9375 -1.0625 0.9375 -2.75zm-7.265625 -11.59375q-3.96875 0 -6.28125 -1.75q-2.328125 -1.765625 -2.328125 -4.78125q0 -3.453125 2.75 -5.25l-2.4375 -0.09375l0 -1.75l16.5625 0q3.265625 0 5.171875 1.828125q1.90625 1.828125 1.90625 4.953125q0 1.765625 -0.796875 3.375q-0.78125 1.59375 -2.09375 2.515625l-1.125 -1.046875q2.4375 -1.984375 2.4375 -4.71875q0 -2.34375 -1.390625 -3.65625q-1.375 -1.3125 -3.828125 -1.359375l-2.125 0q2.5 1.796875 2.5 5.234375q0 2.9375 -2.34375 4.71875q-2.34375 1.78125 -6.328125 1.78125l-0.25 0zm0.328125 -1.890625q3.234375 0 5.109375 -1.296875q1.859375 -1.296875 1.859375 -3.65625q0 -3.453125 -3.09375 -4.890625l-7.859375 0q-1.625 0.65625 -2.46875 1.890625q-0.859375 1.234375 -0.859375 2.96875q0 2.359375 1.859375 3.671875q1.84375 1.3125 5.453125 1.3125zm-12.828125 -32.484375l0 7.796875l21.109375 0l0 1.921875l-21.109375 0l0 7.78125l-1.640625 0l0 -17.5l1.640625 0zm18.421875 -7.46875l-14.21875 -4.9375l0 -2.015625l19.78125 7.21875l0.875 0.375q3.078125 1.390625 3.078125 4.296875q0 0.671875 -0.21875 1.4375l-1.546875 0.015625l0.09375 -0.96875q0 -1.375 -0.6875 -2.21875q-0.671875 -0.859375 -2.328125 -1.453125l-2.28125 -0.828125l-16.765625 6.375l0 -2.046875l14.21875 -5.25zm-5.59375 -23.43747q3.953125 0 6.28125 1.75q2.3125 1.75 2.3125 4.6874695q0 3.46875 -2.4375 5.3125l8.625 0l0 1.859375l-23.40625 0l0 -1.734375l2.390625 -0.09375q-2.703125 -1.828125 -2.703125 -5.296875q0 -3.0312195 2.296875 -4.7499695q2.296875 -1.734375 6.375 -1.734375l0.265625 0zm-0.328125 1.875q-3.234375 0 -5.109375 1.328125q-1.875 1.328125 -1.875 3.7030945q0 1.71875 0.828125 2.953125q0.828125 1.234375 2.40625 1.890625l8.109375 0q1.453125 -0.671875 2.21875 -1.921875q0.765625 -1.25 0.765625 -2.953125q0 -2.3593445 -1.875 -3.6718445q-1.890625 -1.328125 -5.46875 -1.328125zm8.921875 -12.5625q0 2.15625 -1.0625 3.90625q-1.0625 1.734375 -2.953125 2.703125q-1.90625 0.96875 -4.265625 0.96875l-0.671875 0q-2.4375 0 -4.390625 -0.9375q-1.953125 -0.953125 -3.0625 -2.640625q-1.125 -1.6875 -1.125 -3.65625q0 -3.078125 2.109375 -4.875q2.09375 -1.8125 5.734375 -1.8125l1.046875 0l0 12.0625l0.359375 0q2.875 0 4.796875 -1.640625q1.90625 -1.65625 1.90625 -4.15625q0 -1.5 -0.546875 -2.640625q-0.546875 -1.15625 -1.75 -2.09375l0.890625 -1.171875q2.984375 2.0625 2.984375 5.984375zm-15.9375 0.34375q0 2.109375 1.546875 3.5625q1.546875 1.4375 4.15625 1.75l0 -10.140625l-0.203125 0q-2.4375 0.078125 -3.96875 1.390625q-1.53125 1.3125 -1.53125 3.4375z"
              fill-rule="nonzero"/>
        <path fill="#666666" d="m317.20364 537.4934l0 -438.67712l55.77951 0l0 438.67712z" fill-rule="evenodd"/>
        <path stroke="#999999" stroke-width="4.0" stroke-linejoin="round" stroke-linecap="butt"
              d="m317.20364 537.4934l0 -438.67712l55.77951 0l0 438.67712z" fill-rule="evenodd"/>
        <path fill="#ffffff"
              d="m356.8134 440.42047l-22.75 0l0 -6.71875q0 -3.65625 1.515625 -5.546875q1.5 -1.890625 4.4375 -1.890625q1.765625 0 3.078125 0.96875q1.296875 0.953125 1.859375 2.625q0.4375 -1.984375 1.953125 -3.1875q1.515625 -1.21875 3.5 -1.21875q3.015625 0 4.71875 1.953125q1.6875 1.9375 1.6875 5.40625l0 7.609375zm-10.9375 -1.921875l9.3125 0l0 -5.765625q0 -2.46875 -1.25 -3.90625q-1.265625 -1.453125 -3.5 -1.453125q-2.109375 0 -3.328125 1.390625q-1.234375 1.375 -1.234375 3.8125l0 5.921875zm-1.609375 0l0 -5.25q-0.046875 -2.40625 -1.125 -3.71875q-1.09375 -1.328125 -3.171875 -1.328125q-2.1875 0 -3.21875 1.375q-1.046875 1.359375 -1.046875 4.125l0 4.796875l8.5625 0zm10.40625 -28.125q2.453125 1.6875 2.453125 5.390625q0 2.703125 -1.5625 4.109375q-1.578125 1.40625 -4.65625 1.4375l-11.0 0l0 -1.859375l10.765625 0q4.828125 0 4.828125 -3.90625q0 -4.0625 -3.359375 -5.140625l-12.234375 0l0 -1.875l16.90625 0l0 1.8125l-2.140625 0.03125zm2.140625 -8.796875l0 1.875l-16.90625 0l0 -1.875l16.90625 0zm-21.796875 2.203125q-0.53125 0 -0.890625 -0.34375q-0.375 -0.34375 -0.375 -0.9375q0 -0.59375 0.375 -0.9375q0.359375 -0.359375 0.890625 -0.359375q0.53125 0 0.890625 0.359375q0.359375 0.34375 0.359375 0.9375q0 0.59375 -0.359375 0.9375q-0.359375 0.34375 -0.890625 0.34375zm21.796875 -9.375l0 1.875l-24.0 0l0 -1.875l24.0 0zm-8.609375 -4.328125q-3.9375 0 -6.265625 -1.75q-2.34375 -1.765625 -2.34375 -4.78125q0 -3.421875 2.703125 -5.21875l-9.484375 0l0 -1.859375l24.0 0l0 1.75l-2.25 0.078125q2.5625 1.796875 2.5625 5.28125q0 2.921875 -2.34375 4.71875q-2.359375 1.78125 -6.359375 1.78125l-0.21875 0zm0.328125 -1.890625q3.234375 0 5.109375 -1.296875q1.859375 -1.296875 1.859375 -3.65625q0 -3.453125 -3.046875 -4.90625l-7.9375 0q-3.296875 1.453125 -3.296875 4.875q0 2.359375 1.859375 3.671875q1.84375 1.3125 5.453125 1.3125zm8.28125 -18.734375l0 1.875l-16.90625 0l0 -1.875l16.90625 0zm-21.796875 2.203125q-0.53125 0 -0.890625 -0.34375q-0.375 -0.34375 -0.375 -0.9375q0 -0.59375 0.375 -0.9375q0.359375 -0.359375 0.890625 -0.359375q0.53125 0 0.890625 0.359375q0.359375 0.34375 0.359375 0.9375q0 0.59375 -0.359375 0.9375q-0.359375 0.34375 -0.890625 0.34375zm4.890625 -9.0625l2.890625 -0.0625q-1.5625 -0.953125 -2.375 -2.375q-0.828125 -1.421875 -0.828125 -3.140625q0 -2.71875 1.53125 -4.046875q1.53125 -1.328125 4.59375 -1.34375l11.09375 0l0 1.859375l-11.109375 0q-2.265625 0.015625 -3.375 0.96875q-1.109375 0.9375 -1.109375 3.015625q0 1.734375 1.09375 3.078125q1.078125 1.328125 2.921875 1.96875l11.578125 0l0 1.859375l-16.90625 0l0 -1.78125zm8.296875 -15.046875q-3.96875 0 -6.28125 -1.75q-2.328125 -1.765625 -2.328125 -4.78125q0 -3.453125 2.75 -5.25l-2.4375 -0.09375l0 -1.75l16.5625 0q3.265625 0 5.171875 1.828125q1.90625 1.828125 1.90625 4.953125q0 1.765625 -0.796875 3.375q-0.78125 1.59375 -2.09375 2.515625l-1.125 -1.046875q2.4375 -1.984375 2.4375 -4.71875q0 -2.34375 -1.390625 -3.65625q-1.375 -1.3125 -3.828125 -1.359375l-2.125 0q2.5 1.796875 2.5 5.234375q0 2.9375 -2.34375 4.71875q-2.34375 1.78125 -6.328125 1.78125l-0.25 0zm0.328125 -1.890625q3.234375 0 5.109375 -1.296875q1.859375 -1.296875 1.859375 -3.65625q0 -3.453125 -3.09375 -4.890625l-7.859375 0q-1.625 0.65625 -2.46875 1.890625q-0.859375 1.234375 -0.859375 2.96875q0 2.359375 1.859375 3.671875q1.84375 1.3125 5.453125 1.3125zm-12.828125 -39.640625l0 7.796875l21.109375 0l0 1.921875l-21.109375 0l0 7.78125l-1.640625 0l0 -17.5l1.640625 0zm21.421875 -8.234375q0 2.15625 -1.0625 3.90625q-1.0625 1.734375 -2.953125 2.703125q-1.90625 0.96875 -4.265625 0.96875l-0.671875 0q-2.4375 0 -4.390625 -0.9375q-1.953125 -0.953125 -3.0625 -2.640625q-1.125 -1.6875 -1.125 -3.65625q0 -3.078125 2.109375 -4.875q2.09375 -1.8125 5.734375 -1.8125l1.046875 0l0 12.0625l0.359375 0q2.875 0 4.796875 -1.640625q1.90625 -1.65625 1.90625 -4.15625q0 -1.5 -0.546875 -2.640625q-0.546875 -1.15625 -1.75 -2.09375l0.890625 -1.171875q2.984375 2.0625 2.984375 5.984375zm-15.9375 0.34375q0 2.109375 1.546875 3.5625q1.546875 1.4375 4.15625 1.75l0 -10.140625l-0.203125 0q-2.4375 0.078125 -3.96875 1.390625q-1.53125 1.3125 -1.53125 3.4375zm-1.28125 -12.03125l2.75 -0.0625q-1.53125 -0.9375 -2.296875 -2.34375q-0.765625 -1.40625 -0.765625 -3.1249695q0 -4.0 3.28125 -5.078125q-1.578125 -0.90625 -2.421875 -2.421875q-0.859375 -1.515625 -0.859375 -3.34375q0 -5.4375 5.9375 -5.546875l11.28125 0l0 1.875l-11.140625 0q-2.265625 0.015625 -3.359375 0.984375q-1.09375 0.953125 -1.09375 3.125q0.03125 2.015625 1.3125 3.40625q1.265625 1.390625 3.09375 1.546875l11.1875 0l0 1.875l-11.28125 0q-2.171875 0.015625 -3.234375 1.03125q-1.078125 1.0 -1.078125 3.09375q0 1.7655945 1.015625 3.0312195q1.0 1.265625 2.984375 1.875l11.59375 0l0 1.875l-16.90625 0l0 -1.796875zm8.625 -40.24997q3.953125 0 6.28125 1.75q2.3125 1.75 2.3125 4.6875q0 3.46875 -2.4375 5.3125l8.625 0l0 1.859375l-23.40625 0l0 -1.734375l2.390625 -0.09375q-2.703125 -1.828125 -2.703125 -5.296875q0 -3.03125 2.296875 -4.75q2.296875 -1.734375 6.375 -1.734375l0.265625 0zm-0.328125 1.875q-3.234375 0 -5.109375 1.328125q-1.875 1.328125 -1.875 3.703125q0 1.71875 0.828125 2.953125q0.828125 1.234375 2.40625 1.890625l8.109375 0q1.453125 -0.671875 2.21875 -1.921875q0.765625 -1.25 0.765625 -2.953125q0 -2.359375 -1.875 -3.671875q-1.890625 -1.328125 -5.46875 -1.328125zm8.609375 -8.109375l0 1.875l-24.0 0l0 -1.875l24.0 0zm0 -15.75q-0.796875 0.28125 -2.359375 0.359375q1.28125 0.984375 1.984375 2.515625q0.6875 1.515625 0.6875 3.21875q0 2.4375 -1.359375 3.953125q-1.359375 1.5 -3.4375 1.5q-2.46875 0 -3.90625 -2.046875q-1.4375 -2.0625 -1.4375 -5.734375l0 -3.390625l-1.921875 0q-1.8125 0 -2.84375 1.125q-1.046875 1.109375 -1.046875 3.25q0 1.953125 1.0 3.234375q1.0 1.28125 2.40625 1.28125l-0.015625 1.875q-2.015625 0 -3.484375 -1.875q-1.484375 -1.875 -1.484375 -4.609375q0 -2.828125 1.421875 -4.453125q1.40625 -1.640625 3.9375 -1.6875l8.0 0q2.453125 0 3.671875 -0.515625l0.1875 0l0 2.0zm-1.34375 5.875q0 -1.875 -0.90625 -3.34375q-0.90625 -1.484375 -2.421875 -2.15625l-3.71875 0l0 3.34375q0.03125 2.796875 1.03125 4.375q0.984375 1.578125 2.71875 1.578125q1.421875 0 2.359375 -1.046875q0.9375 -1.0625 0.9375 -2.75zm-19.890625 -15.25l4.328125 0l0 -3.5l1.53125 0l0 3.5l11.265625 0q1.40625 0 2.09375 -0.5q0.6875 -0.515625 0.6875 -1.703125q0 -0.46875 -0.15625 -1.515625l1.53125 -0.078125q0.265625 0.734375 0.265625 2.0q0 1.921875 -1.109375 2.796875q-1.125 0.875 -3.296875 0.875l-11.28125 0l0 3.109375l-1.53125 0l0 -3.109375l-4.328125 0l0 -1.875zm21.546875 -13.921875q0 2.15625 -1.0625 3.90625q-1.0625 1.734375 -2.953125 2.703125q-1.90625 0.96875 -4.265625 0.96875l-0.671875 0q-2.4375 0 -4.390625 -0.9375q-1.953125 -0.953125 -3.0625 -2.640625q-1.125 -1.6875 -1.125 -3.65625q0 -3.078125 2.109375 -4.875q2.09375 -1.8125 5.734375 -1.8125l1.046875 0l0 12.0625l0.359375 0q2.875 0 4.796875 -1.640625q1.90625 -1.65625 1.90625 -4.15625q0 -1.5 -0.546875 -2.640625q-0.546875 -1.15625 -1.75 -2.09375l0.890625 -1.171875q2.984375 2.0625 2.984375 5.984375zm-15.9375 0.34375q0 2.109375 1.546875 3.5625q1.546875 1.4375 4.15625 1.75l0 -10.140625l-0.203125 0q-2.4375 0.078125 -3.96875 1.390625q-1.53125 1.3125 -1.53125 3.4375z"
              fill-rule="nonzero"/>
        <path fill="#666666" d="m384.64798 537.4934l0 -438.67712l55.77951 0l0 438.67712z" fill-rule="evenodd"/>
        <path stroke="#999999" stroke-width="4.0" stroke-linejoin="round" stroke-linecap="butt"
              d="m384.64798 537.4934l0 -438.67712l55.77951 0l0 438.67712z" fill-rule="evenodd"/>
        <path fill="#ffffff"
              d="m424.25772 371.1861l-22.75 0l0 -6.71875q0 -3.65625 1.515625 -5.546875q1.5 -1.890625 4.4375 -1.890625q1.765625 0 3.078125 0.96875q1.296875 0.953125 1.859375 2.625q0.4375 -1.984375 1.953125 -3.1875q1.515625 -1.21875 3.5 -1.21875q3.015625 0 4.71875 1.953125q1.6875 1.9375 1.6875 5.40625l0 7.609375zm-10.9375 -1.921875l9.3125 0l0 -5.765625q0 -2.46875 -1.25 -3.90625q-1.265625 -1.453125 -3.5 -1.453125q-2.109375 0 -3.328125 1.390625q-1.234375 1.375 -1.234375 3.8125l0 5.921875zm-1.609375 0l0 -5.25q-0.046875 -2.40625 -1.125 -3.71875q-1.09375 -1.328125 -3.171875 -1.328125q-2.1875 0 -3.21875 1.375q-1.046875 1.359375 -1.046875 4.125l0 4.796875l8.5625 0zm10.40625 -28.125q2.453125 1.6875 2.453125 5.390625q0 2.703125 -1.5625 4.109375q-1.578125 1.40625 -4.65625 1.4375l-11.0 0l0 -1.859375l10.765625 0q4.828125 0 4.828125 -3.90625q0 -4.0625 -3.359375 -5.140625l-12.234375 0l0 -1.875l16.90625 0l0 1.8125l-2.140625 0.03125zm2.140625 -8.796875l0 1.875l-16.90625 0l0 -1.875l16.90625 0zm-21.796875 2.203125q-0.53125 0 -0.890625 -0.34375q-0.375 -0.34375 -0.375 -0.9375q0 -0.59375 0.375 -0.9375q0.359375 -0.359375 0.890625 -0.359375q0.53125 0 0.890625 0.359375q0.359375 0.34375 0.359375 0.9375q0 0.59375 -0.359375 0.9375q-0.359375 0.34375 -0.890625 0.34375zm21.796875 -9.375l0 1.875l-24.0 0l0 -1.875l24.0 0zm-8.609375 -4.328125q-3.9375 0 -6.265625 -1.75q-2.34375 -1.765625 -2.34375 -4.78125q0 -3.421875 2.703125 -5.21875l-9.484375 0l0 -1.859375l24.0 0l0 1.75l-2.25 0.078125q2.5625 1.796875 2.5625 5.28125q0 2.921875 -2.34375 4.71875q-2.359375 1.78125 -6.359375 1.78125l-0.21875 0zm0.328125 -1.890625q3.234375 0 5.109375 -1.296875q1.859375 -1.296875 1.859375 -3.65625q0 -3.453125 -3.046875 -4.90625l-7.9375 0q-3.296875 1.453125 -3.296875 4.875q0 2.359375 1.859375 3.671875q1.84375 1.3125 5.453125 1.3125zm8.28125 -18.734375l0 1.875l-16.90625 0l0 -1.875l16.90625 0zm-21.796875 2.203125q-0.53125 0 -0.890625 -0.34375q-0.375 -0.34375 -0.375 -0.9375q0 -0.59375 0.375 -0.9375q0.359375 -0.359375 0.890625 -0.359375q0.53125 0 0.890625 0.359375q0.359375 0.34375 0.359375 0.9375q0 0.59375 -0.359375 0.9375q-0.359375 0.34375 -0.890625 0.34375zm4.890625 -9.0625l2.890625 -0.0625q-1.5625 -0.953125 -2.375 -2.375q-0.828125 -1.421875 -0.828125 -3.140625q0 -2.71875 1.53125 -4.046875q1.53125 -1.328125 4.59375 -1.34375l11.09375 0l0 1.859375l-11.109375 0q-2.265625 0.015625 -3.375 0.96875q-1.109375 0.9375 -1.109375 3.015625q0 1.734375 1.09375 3.078125q1.078125 1.328125 2.921875 1.96875l11.578125 0l0 1.859375l-16.90625 0l0 -1.78125zm8.296875 -15.0468445q-3.96875 0 -6.28125 -1.75q-2.328125 -1.765625 -2.328125 -4.78125q0 -3.453125 2.75 -5.25l-2.4375 -0.09375l0 -1.75l16.5625 0q3.265625 0 5.171875 1.828125q1.90625 1.828125 1.90625 4.953125q0 1.765625 -0.796875 3.375q-0.78125 1.59375 -2.09375 2.515625l-1.125 -1.046875q2.4375 -1.984375 2.4375 -4.71875q0 -2.34375 -1.390625 -3.65625q-1.375 -1.3125 -3.828125 -1.359375l-2.125 0q2.5 1.796875 2.5 5.234375q0 2.9375 -2.34375 4.71875q-2.34375 1.78125 -6.328125 1.78125l-0.25 0zm0.328125 -1.890625q3.234375 0 5.109375 -1.296875q1.859375 -1.296875 1.859375 -3.65625q0 -3.453125 -3.09375 -4.890625l-7.859375 0q-1.625 0.65625 -2.46875 1.890625q-0.859375 1.234375 -0.859375 2.96875q0 2.359375 1.859375 3.671875q1.84375 1.3125 5.453125 1.3125z"
              fill-rule="nonzero"/>
        <path fill="#666666" d="m452.0923 537.4917l0 -438.67715l55.77954 0l0 438.67715z" fill-rule="evenodd"/>
        <path stroke="#999999" stroke-width="4.0" stroke-linejoin="round" stroke-linecap="butt"
              d="m452.0923 537.4917l0 -438.67715l55.77954 0l0 438.67715z" fill-rule="evenodd"/>
        <path fill="#ffffff"
              d="m491.70206 411.08282l-22.75 0l0 -6.359375q0 -2.796875 1.28125 -5.015625q1.265625 -2.21875 3.640625 -3.453125q2.375 -1.25 5.40625 -1.25l2.09375 0q3.046875 0 5.40625 1.234375q2.359375 1.234375 3.640625 3.484375q1.28125 2.234375 1.28125 5.140625l0 6.21875zm-21.109375 -1.921875l19.484375 0l0 -4.3125q0 -3.59375 -2.375 -5.765625q-2.390625 -2.171875 -6.453125 -2.171875l-2.0 0q-3.921875 0 -6.28125 2.140625q-2.359375 2.140625 -2.375 5.640625l0 4.46875zm21.109375 -29.265625q-0.796875 0.28125 -2.359375 0.359375q1.28125 0.984375 1.984375 2.515625q0.6875 1.515625 0.6875 3.21875q0 2.4375 -1.359375 3.953125q-1.359375 1.5 -3.4375 1.5q-2.46875 0 -3.90625 -2.046875q-1.4375 -2.0625 -1.4375 -5.734375l0 -3.390625l-1.921875 0q-1.8125 0 -2.84375 1.125q-1.046875 1.109375 -1.046875 3.25q0 1.953125 1.0 3.234375q1.0 1.28125 2.40625 1.28125l-0.015625 1.875q-2.015625 0 -3.484375 -1.875q-1.484375 -1.875 -1.484375 -4.609375q0 -2.828125 1.421875 -4.453125q1.40625 -1.640625 3.9375 -1.6875l8.0 0q2.453125 0 3.671875 -0.515625l0.1875 0l0 2.0zm-1.34375 5.875q0 -1.875 -0.90625 -3.34375q-0.90625 -1.484375 -2.421875 -2.15625l-3.71875 0l0 3.34375q0.03125 2.796875 1.03125 4.375q0.984375 1.578125 2.71875 1.578125q1.421875 0 2.359375 -1.046875q0.9375 -1.0625 0.9375 -2.75zm-19.890625 -15.25l4.328125 0l0 -3.5l1.53125 0l0 3.5l11.265625 0q1.40625 0 2.09375 -0.5q0.6875 -0.515625 0.6875 -1.703125q0 -0.46875 -0.15625 -1.515625l1.53125 -0.078125q0.265625 0.734375 0.265625 2.0q0 1.921875 -1.109375 2.796875q-1.125 0.875 -3.296875 0.875l-11.28125 0l0 3.109375l-1.53125 0l0 -3.109375l-4.328125 0l0 -1.875zm21.234375 -18.046875q-0.796875 0.28125 -2.359375 0.359375q1.28125 0.984375 1.984375 2.515625q0.6875 1.515625 0.6875 3.21875q0 2.4375 -1.359375 3.953125q-1.359375 1.5 -3.4375 1.5q-2.46875 0 -3.90625 -2.046875q-1.4375 -2.0625 -1.4375 -5.734375l0 -3.390625l-1.921875 0q-1.8125 0 -2.84375 1.125q-1.046875 1.109375 -1.046875 3.25q0 1.953125 1.0 3.234375q1.0 1.28125 2.40625 1.28125l-0.015625 1.875q-2.015625 0 -3.484375 -1.875q-1.484375 -1.875 -1.484375 -4.609375q0 -2.828125 1.421875 -4.453125q1.40625 -1.640625 3.9375 -1.6875l8.0 0q2.453125 0 3.671875 -0.515625l0.1875 0l0 2.0zm-1.34375 5.875q0 -1.875 -0.90625 -3.34375q-0.90625 -1.484375 -2.421875 -2.15625l-3.71875 0l0 3.34375q0.03125 2.796875 1.03125 4.375q0.984375 1.578125 2.71875 1.578125q1.421875 0 2.359375 -1.046875q0.9375 -1.0625 0.9375 -2.75zm-4.25 -33.4375q-1.890625 0 -2.984375 1.328125q-1.109375 1.328125 -2.09375 4.859375q-1.0 3.53125 -2.171875 5.15625q-1.65625 2.3125 -4.34375 2.3125q-2.609375 0 -4.234375 -2.140625q-1.640625 -2.15625 -1.640625 -5.5q0 -2.265625 0.875 -4.046875q0.875 -1.796875 2.4375 -2.78125q1.5625 -0.984375 3.484375 -0.984375l0 1.9375q-2.328125 0 -3.734375 1.59375q-1.421875 1.59375 -1.421875 4.28125q0 2.609375 1.171875 4.15625q1.15625 1.546875 3.03125 1.546875q1.734375 0 2.828125 -1.390625q1.09375 -1.390625 1.9375 -4.453125q0.828125 -3.0625 1.734375 -4.640625q0.890625 -1.578125 2.140625 -2.375q1.25 -0.796875 2.953125 -0.796875q2.6875 0 4.3125 2.15625q1.625 2.140625 1.625 5.65625q0 2.40625 -0.859375 4.421875q-0.859375 2.0 -2.40625 3.046875q-1.546875 1.03125 -3.546875 1.03125l0 -1.921875q2.40625 0 3.796875 -1.796875q1.390625 -1.796875 1.390625 -4.78125q0 -2.65625 -1.171875 -4.265625q-1.171875 -1.609375 -3.109375 -1.609375zm5.90625 -12.1875q0 2.15625 -1.0625 3.90625q-1.0625 1.734375 -2.953125 2.703125q-1.90625 0.96875 -4.265625 0.96875l-0.671875 0q-2.4375 0 -4.390625 -0.9375q-1.953125 -0.953125 -3.0625 -2.640625q-1.125 -1.6875 -1.125 -3.65625q0 -3.078125 2.109375 -4.875q2.09375 -1.8125 5.734375 -1.8125l1.046875 0l0 12.0625l0.359375 0q2.875 0 4.796875 -1.640625q1.90625 -1.65625 1.90625 -4.15625q0 -1.5 -0.546875 -2.640625q-0.546875 -1.15625 -1.75 -2.09375l0.890625 -1.171875q2.984375 2.0625 2.984375 5.984375zm-15.9375 0.34375q0 2.109375 1.546875 3.5625q1.546875 1.4375 4.15625 1.75l0 -10.140625l-0.203125 0q-2.4375 0.078125 -3.96875 1.390625q-1.53125 1.3125 -1.53125 3.4375zm0.3125 -18.140625q-0.109375 0.59375 -0.109375 1.265625q0 1.75 0.984375 2.96875q0.96875 1.203125 2.828125 1.71875l11.609375 0l0 1.859375l-16.90625 0l0 -1.828125l2.6875 -0.03125q-3.0 -1.484375 -3.0 -4.765625q0 -0.78125 0.203125 -1.234375l1.703125 0.046875zm12.734375 -8.5l-14.328125 -5.1405945l0 -1.921875l16.90625 6.3124695l0 1.515625l-16.90625 6.34375l0 -1.921875l14.328125 -5.1875zm2.578125 -12.2187195l0 1.875l-16.90625 0l0 -1.875l16.90625 0zm-21.796875 2.203125q-0.53125 0 -0.890625 -0.34375q-0.375 -0.34375 -0.375 -0.9375q0 -0.59375 0.375 -0.9375q0.359375 -0.359375 0.890625 -0.359375q0.53125 0 0.890625 0.359375q0.359375 0.34375 0.359375 0.9375q0 0.59375 -0.359375 0.9375q-0.359375 0.34375 -0.890625 0.34375zm20.53125 -13.53125q0 -1.953125 -1.09375 -3.265625q-1.109375 -1.328125 -2.859375 -1.4375l0 -1.796875q1.546875 0.078125 2.828125 0.96875q1.265625 0.890625 1.984375 2.375q0.71875 1.46875 0.71875 3.15625q0 3.328125 -2.3125 5.28125q-2.3125 1.9375 -6.21875 1.9375l-0.5625 0q-2.5 0 -4.421875 -0.875q-1.921875 -0.875 -2.96875 -2.5q-1.046875 -1.640625 -1.046875 -3.828125q0 -2.78125 1.65625 -4.578125q1.65625 -1.8125 4.359375 -1.9375l0 1.796875q-1.984375 0.125 -3.203125 1.4375q-1.21875 1.296875 -1.21875 3.28125q0 2.53125 1.828125 3.9375q1.828125 1.390625 5.125 1.390625l0.546875 0q3.234375 0 5.046875 -1.390625q1.8125 -1.40625 1.8125 -3.953125zm1.578125 -16.781265q0 2.15625 -1.0625 3.90625q-1.0625 1.734375 -2.953125 2.703125q-1.90625 0.96875 -4.265625 0.96875l-0.671875 0q-2.4375 0 -4.390625 -0.9375q-1.953125 -0.953125 -3.0625 -2.640625q-1.125 -1.6875 -1.125 -3.65625q0 -3.078125 2.109375 -4.875q2.09375 -1.8125 5.734375 -1.8125l1.046875 0l0 12.0625l0.359375 0q2.875 0 4.796875 -1.640625q1.90625 -1.65625 1.90625 -4.15625q0 -1.5 -0.546875 -2.640625q-0.546875 -1.15625 -1.75 -2.09375l0.890625 -1.171875q2.984375 2.0625 2.984375 5.984375zm-15.9375 0.34375q0 2.109375 1.546875 3.5625q1.546875 1.4375 4.15625 1.75l0 -10.140625l-0.203125 0q-2.4375 0.078125 -3.96875 1.390625q-1.53125 1.3125 -1.53125 3.4375zm11.328125 -20.453125q-1.390625 0 -2.234375 1.125q-0.84375 1.109375 -1.3125 3.359375q-0.484375 2.25 -1.09375 3.5q-0.625 1.234375 -1.515625 1.84375q-0.890625 0.59375 -2.15625 0.59375q-2.0 0 -3.296875 -1.671875q-1.3125 -1.671875 -1.3125 -4.28125q0 -2.828125 1.40625 -4.53125q1.390625 -1.71875 3.640625 -1.71875l0 1.875q-1.484375 0 -2.46875 1.25q-0.984375 1.234375 -0.984375 3.125q0 1.84375 0.828125 2.96875q0.8125 1.109375 2.125 1.109375q1.265625 0 1.96875 -0.921875q0.6875 -0.9375 1.265625 -3.390625q0.578125 -2.46875 1.234375 -3.6875q0.65625 -1.234375 1.578125 -1.828125q0.921875 -0.59375 2.234375 -0.59375q2.140625 0 3.421875 1.734375q1.28125 1.71875 1.28125 4.5q0 2.953125 -1.421875 4.796875q-1.4375 1.828125 -3.625 1.828125l0 -1.875q1.640625 -0.109375 2.5625 -1.375q0.90625 -1.28125 0.90625 -3.375q0 -1.953125 -0.859375 -3.15625q-0.859375 -1.203125 -2.171875 -1.203125z"
              fill-rule="nonzero"/>
        <path fill="#666666" d="m519.5366 537.4934l0 -438.67712l55.77954 0l0 438.67712z" fill-rule="evenodd"/>
        <path stroke="#999999" stroke-width="4.0" stroke-linejoin="round" stroke-linecap="butt"
              d="m519.5366 537.4934l0 -438.67712l55.77954 0l0 438.67712z" fill-rule="evenodd"/>
        <path fill="#ffffff"
              d="m553.5527 351.3814q-1.890625 0 -2.984375 1.328125q-1.109375 1.328125 -2.09375 4.859375q-1.0 3.53125 -2.171875 5.15625q-1.65625 2.3125 -4.34375 2.3125q-2.609375 0 -4.234375 -2.140625q-1.640625 -2.15625 -1.640625 -5.5q0 -2.265625 0.875 -4.046875q0.875 -1.796875 2.4375 -2.78125q1.5625 -0.984375 3.484375 -0.984375l0 1.9375q-2.328125 0 -3.734375 1.59375q-1.421875 1.59375 -1.421875 4.28125q0 2.609375 1.171875 4.15625q1.15625 1.546875 3.03125 1.546875q1.734375 0 2.828125 -1.390625q1.09375 -1.390625 1.9375 -4.453125q0.828125 -3.0625 1.734375 -4.640625q0.890625 -1.578125 2.140625 -2.375q1.25 -0.796875 2.953125 -0.796875q2.6875 0 4.3125 2.15625q1.625 2.140625 1.625 5.65625q0 2.40625 -0.859375 4.421875q-0.859375 2.0 -2.40625 3.046875q-1.546875 1.03125 -3.546875 1.03125l0 -1.921875q2.40625 0 3.796875 -1.796875q1.390625 -1.796875 1.390625 -4.78125q0 -2.65625 -1.171875 -4.265625q-1.171875 -1.609375 -3.109375 -1.609375zm5.90625 -12.1875q0 2.15625 -1.0625 3.90625q-1.0625 1.734375 -2.953125 2.703125q-1.90625 0.96875 -4.265625 0.96875l-0.671875 0q-2.4375 0 -4.390625 -0.9375q-1.953125 -0.953125 -3.0625 -2.640625q-1.125 -1.6875 -1.125 -3.65625q0 -3.078125 2.109375 -4.875q2.09375 -1.8125 5.734375 -1.8125l1.046875 0l0 12.0625l0.359375 0q2.875 0 4.796875 -1.640625q1.90625 -1.65625 1.90625 -4.15625q0 -1.5 -0.546875 -2.640625q-0.546875 -1.15625 -1.75 -2.09375l0.890625 -1.171875q2.984375 2.0625 2.984375 5.984375zm-15.9375 0.34375q0 2.109375 1.546875 3.5625q1.546875 1.4375 4.15625 1.75l0 -10.140625l-0.203125 0q-2.4375 0.078125 -3.96875 1.390625q-1.53125 1.3125 -1.53125 3.4375zm-1.28125 -12.109375l2.890625 -0.0625q-1.5625 -0.953125 -2.375 -2.375q-0.828125 -1.421875 -0.828125 -3.140625q0 -2.71875 1.53125 -4.046875q1.53125 -1.328125 4.59375 -1.34375l11.09375 0l0 1.859375l-11.109375 0q-2.265625 0.015625 -3.375 0.96875q-1.109375 0.9375 -1.109375 3.015625q0 1.734375 1.09375 3.078125q1.078125 1.328125 2.921875 1.96875l11.578125 0l0 1.859375l-16.90625 0l0 -1.78125zm12.609375 -25.921875q-1.390625 0 -2.234375 1.125q-0.84375 1.109375 -1.3125 3.359375q-0.484375 2.25 -1.09375 3.5q-0.625 1.234375 -1.515625 1.84375q-0.890625 0.59375 -2.15625 0.59375q-2.0 0 -3.296875 -1.671875q-1.3125 -1.671875 -1.3125 -4.28125q0 -2.828125 1.40625 -4.53125q1.390625 -1.71875 3.640625 -1.71875l0 1.875q-1.484375 0 -2.46875 1.25q-0.984375 1.234375 -0.984375 3.125q0 1.84375 0.828125 2.96875q0.8125 1.109375 2.125 1.109375q1.265625 0 1.96875 -0.921875q0.6875 -0.9375 1.265625 -3.390625q0.578125 -2.46875 1.234375 -3.6875q0.65625 -1.234375 1.578125 -1.828125q0.921875 -0.59375 2.234375 -0.59375q2.140625 0 3.421875 1.734375q1.28125 1.71875 1.28125 4.5q0 2.953125 -1.421875 4.796875q-1.4375 1.828125 -3.625 1.828125l0 -1.875q1.640625 -0.109375 2.5625 -1.375q0.90625 -1.28125 0.90625 -3.375q0 -1.953125 -0.859375 -3.15625q-0.859375 -1.203125 -2.171875 -1.203125zm-4.40625 -5.046875q-2.4375 0 -4.390625 -0.9375q-1.953125 -0.953125 -3.03125 -2.671875q-1.09375 -1.734375 -1.09375 -3.921875q0 -3.375 2.375 -5.46875q2.359375 -2.0937195 6.265625 -2.0937195l0.390625 0q2.453125 0 4.421875 0.9530945q1.953125 0.9375 3.015625 2.65625q1.0625 1.71875 1.0625 3.921875q0 3.359375 -2.359375 5.46875q-2.375 2.09375 -6.28125 2.09375l-0.375 0zm0.515625 -1.875q3.03125 0 4.984375 -1.5625q1.9375 -1.578125 1.9375 -4.125q0 -2.53125 -1.9375 -4.09375q-1.953125 -1.578125 -5.140625 -1.578125l-0.359375 0q-1.9375 0 -3.546875 0.71875q-1.609375 0.71875 -2.484375 2.015625q-0.890625 1.296875 -0.890625 2.96875q0 2.5 1.96875 4.078125q1.953125 1.578125 5.125 1.578125l0.34375 0zm-7.125 -24.890594q-0.109375 0.59375 -0.109375 1.265625q0 1.75 0.984375 2.96875q0.96875 1.203125 2.828125 1.71875l11.609375 0l0 1.859375l-16.90625 0l0 -1.828125l2.6875 -0.03125q-3.0 -1.484375 -3.0 -4.765625q0 -0.78125 0.203125 -1.234375l1.703125 0.046875z"
              fill-rule="nonzero"/>
        <path fill="#666666" d="m586.98096 537.4934l0 -438.67712l55.77954 0l0 438.67712z" fill-rule="evenodd"/>
        <path stroke="#999999" stroke-width="4.0" stroke-linejoin="round" stroke-linecap="butt"
              d="m586.98096 537.4934l0 -438.67712l55.77954 0l0 438.67712z" fill-rule="evenodd"/>
        <path fill="#ffffff"
              d="m620.997 398.05328q-1.890625 0 -2.984375 1.328125q-1.109375 1.328125 -2.09375 4.859375q-1.0 3.53125 -2.171875 5.15625q-1.65625 2.3125 -4.34375 2.3125q-2.609375 0 -4.234375 -2.140625q-1.640625 -2.15625 -1.640625 -5.5q0 -2.265625 0.875 -4.046875q0.875 -1.796875 2.4375 -2.78125q1.5625 -0.984375 3.484375 -0.984375l0 1.9375q-2.328125 0 -3.734375 1.59375q-1.421875 1.59375 -1.421875 4.28125q0 2.609375 1.171875 4.15625q1.15625 1.546875 3.03125 1.546875q1.734375 0 2.828125 -1.390625q1.09375 -1.390625 1.9375 -4.453125q0.828125 -3.0625 1.734375 -4.640625q0.890625 -1.578125 2.140625 -2.375q1.25 -0.796875 2.953125 -0.796875q2.6875 0 4.3125 2.15625q1.625 2.140625 1.625 5.65625q0 2.40625 -0.859375 4.421875q-0.859375 2.0 -2.40625 3.046875q-1.546875 1.03125 -3.546875 1.03125l0 -1.921875q2.40625 0 3.796875 -1.796875q1.390625 -1.796875 1.390625 -4.78125q0 -2.65625 -1.171875 -4.265625q-1.171875 -1.609375 -3.109375 -1.609375zm5.90625 -12.1875q0 2.15625 -1.0625 3.90625q-1.0625 1.734375 -2.953125 2.703125q-1.90625 0.96875 -4.265625 0.96875l-0.671875 0q-2.4375 0 -4.390625 -0.9375q-1.953125 -0.953125 -3.0625 -2.640625q-1.125 -1.6875 -1.125 -3.65625q0 -3.078125 2.109375 -4.875q2.09375 -1.8125 5.734375 -1.8125l1.046875 0l0 12.0625l0.359375 0q2.875 0 4.796875 -1.640625q1.90625 -1.65625 1.90625 -4.15625q0 -1.5 -0.546875 -2.640625q-0.546875 -1.15625 -1.75 -2.09375l0.890625 -1.171875q2.984375 2.0625 2.984375 5.984375zm-15.9375 0.34375q0 2.109375 1.546875 3.5625q1.546875 1.4375 4.15625 1.75l0 -10.140625l-0.203125 0q-2.4375 0.078125 -3.96875 1.390625q-1.53125 1.3125 -1.53125 3.4375zm-1.28125 -12.109375l2.890625 -0.0625q-1.5625 -0.953125 -2.375 -2.375q-0.828125 -1.421875 -0.828125 -3.140625q0 -2.71875 1.53125 -4.046875q1.53125 -1.328125 4.59375 -1.34375l11.09375 0l0 1.859375l-11.109375 0q-2.265625 0.015625 -3.375 0.96875q-1.109375 0.9375 -1.109375 3.015625q0 1.734375 1.09375 3.078125q1.078125 1.328125 2.921875 1.96875l11.578125 0l0 1.859375l-16.90625 0l0 -1.78125zm12.609375 -25.921875q-1.390625 0 -2.234375 1.125q-0.84375 1.109375 -1.3125 3.359375q-0.484375 2.25 -1.09375 3.5q-0.625 1.234375 -1.515625 1.84375q-0.890625 0.59375 -2.15625 0.59375q-2.0 0 -3.296875 -1.671875q-1.3125 -1.671875 -1.3125 -4.28125q0 -2.828125 1.40625 -4.53125q1.390625 -1.71875 3.640625 -1.71875l0 1.875q-1.484375 0 -2.46875 1.25q-0.984375 1.234375 -0.984375 3.125q0 1.84375 0.828125 2.96875q0.8125 1.109375 2.125 1.109375q1.265625 0 1.96875 -0.921875q0.6875 -0.9375 1.265625 -3.390625q0.578125 -2.46875 1.234375 -3.6875q0.65625 -1.234375 1.578125 -1.828125q0.921875 -0.59375 2.234375 -0.59375q2.140625 0 3.421875 1.734375q1.28125 1.71875 1.28125 4.5q0 2.953125 -1.421875 4.796875q-1.4375 1.828125 -3.625 1.828125l0 -1.875q1.640625 -0.109375 2.5625 -1.375q0.90625 -1.28125 0.90625 -3.375q0 -1.953125 -0.859375 -3.15625q-0.859375 -1.203125 -2.171875 -1.203125zm-4.40625 -5.046875q-2.4375 0 -4.390625 -0.9375q-1.953125 -0.953125 -3.03125 -2.671875q-1.09375 -1.734375 -1.09375 -3.921875q0 -3.375 2.375 -5.46875q2.359375 -2.09375 6.265625 -2.09375l0.390625 0q2.453125 0 4.421875 0.953125q1.953125 0.9375 3.015625 2.65625q1.0625 1.71875 1.0625 3.921875q0 3.359375 -2.359375 5.46875q-2.375 2.09375 -6.28125 2.09375l-0.375 0zm0.515625 -1.875q3.03125 0 4.984375 -1.5625q1.9375 -1.578125 1.9375 -4.125q0 -2.53125 -1.9375 -4.09375q-1.953125 -1.578125 -5.140625 -1.578125l-0.359375 0q-1.9375 0 -3.546875 0.71875q-1.609375 0.71875 -2.484375 2.015625q-0.890625 1.296875 -0.890625 2.96875q0 2.5 1.96875 4.078125q1.953125 1.578125 5.125 1.578125l0.34375 0zm-7.125 -24.890625q-0.109375 0.59375 -0.109375 1.265625q0 1.75 0.984375 2.96875q0.96875 1.203125 2.828125 1.71875l11.609375 0l0 1.859375l-16.90625 0l0 -1.828125l2.6875 -0.03125q-3.0 -1.484375 -3.0 -4.765625q0 -0.78125 0.203125 -1.234375l1.703125 0.046875zm12.609375 -27.59375q1.421875 1.0 2.21875 3.140625q0.796875 2.125 0.796875 4.765625q0 2.671875 -1.28125 4.75q-1.28125 2.078125 -3.625 3.21875q-2.34375 1.140625 -5.375 1.15625l-2.875 0q-4.734375 0 -7.46875 -2.390625q-2.75 -2.390625 -2.75 -6.421875q0 -3.515625 1.796875 -5.65625q1.78125 -2.140625 4.921875 -2.546875l0 1.921875q-2.5 0.421875 -3.78125 2.046875q-1.296875 1.609375 -1.296875 4.21875q0 3.1875 2.265625 5.046875q2.265625 1.859375 6.390625 1.859375l2.6875 0q2.59375 0 4.59375 -0.875q1.984375 -0.890625 3.078125 -2.53125q1.09375 -1.65625 1.09375 -3.796875q0 -2.484375 -0.78125 -4.265625q-0.515625 -1.15625 -1.203125 -1.71875l-5.875 0l0 6.109375l-1.625 0l0 -8.03125l8.09375 0zm-12.609375 -12.8280945q-0.109375 0.59375 -0.109375 1.265625q0 1.75 0.984375 2.96875q0.96875 1.203125 2.828125 1.7187195l11.609375 0l0 1.859375l-16.90625 0l0 -1.828125l2.6875 -0.03125q-3.0 -1.4843445 -3.0 -4.7655945q0 -0.78125 0.203125 -1.234375l1.703125 0.046875zm6.609375 -1.609375q-2.4375 0 -4.390625 -0.9375q-1.953125 -0.953125 -3.03125 -2.671875q-1.09375 -1.734375 -1.09375 -3.921875q0 -3.375 2.375 -5.46875q2.359375 -2.09375 6.265625 -2.09375l0.390625 0q2.453125 0 4.421875 0.953125q1.953125 0.9375 3.015625 2.65625q1.0625 1.71875 1.0625 3.921875q0 3.359375 -2.359375 5.46875q-2.375 2.09375 -6.28125 2.09375l-0.375 0zm0.515625 -1.875q3.03125 0 4.984375 -1.5625q1.9375 -1.578125 1.9375 -4.125q0 -2.53125 -1.9375 -4.09375q-1.953125 -1.578125 -5.140625 -1.578125l-0.359375 0q-1.9375 0 -3.546875 0.71875q-1.609375 0.71875 -2.484375 2.015625q-0.890625 1.296875 -0.890625 2.96875q0 2.5 1.96875 4.078125q1.953125 1.578125 5.125 1.578125l0.34375 0zm6.046875 -27.953125q2.453125 1.6875 2.453125 5.390625q0 2.703125 -1.5625 4.109375q-1.578125 1.40625 -4.65625 1.4375l-11.0 0l0 -1.859375l10.765625 0q4.828125 0 4.828125 -3.90625q0 -4.0625 -3.359375 -5.140625l-12.234375 0l0 -1.875l16.90625 0l0 1.8125l-2.140625 0.03125zm-6.140625 -20.296875q3.953125 0 6.28125 1.75q2.3125 1.75 2.3125 4.6875q0 3.46875 -2.4375 5.3125l8.625 0l0 1.859375l-23.40625 0l0 -1.734375l2.390625 -0.09375q-2.703125 -1.828125 -2.703125 -5.296875q0 -3.03125 2.296875 -4.75q2.296875 -1.734375 6.375 -1.734375l0.265625 0zm-0.328125 1.875q-3.234375 0 -5.109375 1.328125q-1.875 1.328125 -1.875 3.703125q0 1.71875 0.828125 2.953125q0.828125 1.234375 2.40625 1.890625l8.109375 0q1.453125 -0.671875 2.21875 -1.921875q0.765625 -1.25 0.765625 -2.953125q0 -2.359375 -1.875 -3.671875q-1.890625 -1.328125 -5.46875 -1.328125z"
              fill-rule="nonzero"/>
        <path fill="#666666" d="m654.4253 537.4934l0 -438.67712l55.77954 0l0 438.67712z" fill-rule="evenodd"/>
        <path stroke="#999999" stroke-width="4.0" stroke-linejoin="round" stroke-linecap="butt"
              d="m654.4253 537.4934l0 -438.67712l55.77954 0l0 438.67712z" fill-rule="evenodd"/>
        <path fill="#ffffff"
              d="m671.28503 378.54547l15.53125 0q2.296875 0.015625 4.0 1.015625q1.703125 1.0 2.625 2.828125q0.90625 1.8125 0.90625 4.171875q0 3.59375 -1.953125 5.765625q-1.96875 2.15625 -5.4375 2.234375l-15.671875 0l0 -1.90625l15.390625 0q2.875 0 4.46875 -1.640625q1.578125 -1.640625 1.578125 -4.453125q0 -2.8125 -1.59375 -4.4375q-1.59375 -1.640625 -4.4375 -1.640625l-15.40625 0l0 -1.9375zm18.453125 -15.046875q-1.390625 0 -2.234375 1.125q-0.84375 1.109375 -1.3125 3.359375q-0.484375 2.25 -1.09375 3.5q-0.625 1.234375 -1.515625 1.84375q-0.890625 0.59375 -2.15625 0.59375q-2.0 0 -3.296875 -1.671875q-1.3125 -1.671875 -1.3125 -4.28125q0 -2.828125 1.40625 -4.53125q1.390625 -1.71875 3.640625 -1.71875l0 1.875q-1.484375 0 -2.46875 1.25q-0.984375 1.234375 -0.984375 3.125q0 1.84375 0.828125 2.96875q0.8125 1.109375 2.125 1.109375q1.265625 0 1.96875 -0.921875q0.6875 -0.9375 1.265625 -3.390625q0.578125 -2.46875 1.234375 -3.6875q0.65625 -1.234375 1.578125 -1.828125q0.921875 -0.59375 2.234375 -0.59375q2.140625 0 3.421875 1.734375q1.28125 1.71875 1.28125 4.5q0 2.953125 -1.421875 4.796875q-1.4375 1.828125 -3.625 1.828125l0 -1.875q1.640625 -0.109375 2.5625 -1.375q0.90625 -1.28125 0.90625 -3.375q0 -1.953125 -0.859375 -3.15625q-0.859375 -1.203125 -2.171875 -1.203125zm4.609375 -12.625q0 2.15625 -1.0625 3.90625q-1.0625 1.734375 -2.953125 2.703125q-1.90625 0.96875 -4.265625 0.96875l-0.671875 0q-2.4375 0 -4.390625 -0.9375q-1.953125 -0.953125 -3.0625 -2.640625q-1.125 -1.6875 -1.125 -3.65625q0 -3.078125 2.109375 -4.875q2.09375 -1.8125 5.734375 -1.8125l1.046875 0l0 12.0625l0.359375 0q2.875 0 4.796875 -1.640625q1.90625 -1.65625 1.90625 -4.15625q0 -1.5 -0.546875 -2.640625q-0.546875 -1.15625 -1.75 -2.09375l0.890625 -1.171875q2.984375 2.0625 2.984375 5.984375zm-15.9375 0.34375q0 2.109375 1.546875 3.5625q1.546875 1.4375 4.15625 1.75l0 -10.140625l-0.203125 0q-2.4375 0.078125 -3.96875 1.390625q-1.53125 1.3125 -1.53125 3.4375zm0.3125 -18.140625q-0.109375 0.59375 -0.109375 1.265625q0 1.75 0.984375 2.96875q0.96875 1.203125 2.828125 1.71875l11.609375 0l0 1.859375l-16.90625 0l0 -1.828125l2.6875 -0.03125q-3.0 -1.484375 -3.0 -4.765625q0 -0.78125 0.203125 -1.234375l1.703125 0.046875zm12.609375 -27.59375q1.421875 1.0 2.21875 3.140625q0.796875 2.125 0.796875 4.765625q0 2.671875 -1.28125 4.75q-1.28125 2.078125 -3.625 3.21875q-2.34375 1.140625 -5.375 1.15625l-2.875 0q-4.734375 0 -7.46875 -2.390625q-2.75 -2.390625 -2.75 -6.421875q0 -3.515625 1.796875 -5.65625q1.78125 -2.140625 4.921875 -2.546875l0 1.921875q-2.5 0.421875 -3.78125 2.046875q-1.296875 1.609375 -1.296875 4.21875q0 3.1875 2.265625 5.046875q2.265625 1.859375 6.390625 1.859375l2.6875 0q2.59375 0 4.59375 -0.875q1.984375 -0.890625 3.078125 -2.53125q1.09375 -1.65625 1.09375 -3.796875q0 -2.484375 -0.78125 -4.265625q-0.515625 -1.15625 -1.203125 -1.71875l-5.875 0l0 6.109375l-1.625 0l0 -8.03125l8.09375 0zm-12.609375 -12.828125q-0.109375 0.59375 -0.109375 1.265625q0 1.75 0.984375 2.96875q0.96875 1.203125 2.828125 1.71875l11.609375 0l0 1.859375l-16.90625 0l0 -1.828125l2.6875 -0.03125q-3.0 -1.484375 -3.0 -4.765625q0 -0.78125 0.203125 -1.234375l1.703125 0.046875zm6.609375 -1.609375q-2.4375 0 -4.390625 -0.9375q-1.953125 -0.953125 -3.03125 -2.671875q-1.09375 -1.734375 -1.09375 -3.921875q0 -3.3749695 2.375 -5.4687195q2.359375 -2.09375 6.265625 -2.09375l0.390625 0q2.453125 0 4.421875 0.953125q1.953125 0.9375 3.015625 2.65625q1.0625 1.71875 1.0625 3.9218445q0 3.359375 -2.359375 5.46875q-2.375 2.09375 -6.28125 2.09375l-0.375 0zm0.515625 -1.875q3.03125 0 4.984375 -1.5625q1.9375 -1.578125 1.9375 -4.125q0 -2.5312195 -1.9375 -4.0937195q-1.953125 -1.578125 -5.140625 -1.578125l-0.359375 0q-1.9375 0 -3.546875 0.71875q-1.609375 0.71875 -2.484375 2.015625q-0.890625 1.2968445 -0.890625 2.9687195q0 2.5 1.96875 4.078125q1.953125 1.578125 5.125 1.578125l0.34375 0zm6.046875 -27.953094q2.453125 1.6875 2.453125 5.390625q0 2.703125 -1.5625 4.109375q-1.578125 1.40625 -4.65625 1.4375l-11.0 0l0 -1.859375l10.765625 0q4.828125 0 4.828125 -3.90625q0 -4.0625 -3.359375 -5.140625l-12.234375 0l0 -1.875l16.90625 0l0 1.8125l-2.140625 0.03125zm-6.140625 -20.296875q3.953125 0 6.28125 1.75q2.3125 1.75 2.3125 4.6875q0 3.46875 -2.4375 5.3125l8.625 0l0 1.859375l-23.40625 0l0 -1.734375l2.390625 -0.09375q-2.703125 -1.828125 -2.703125 -5.296875q0 -3.03125 2.296875 -4.75q2.296875 -1.734375 6.375 -1.734375l0.265625 0zm-0.328125 1.875q-3.234375 0 -5.109375 1.328125q-1.875 1.328125 -1.875 3.703125q0 1.71875 0.828125 2.953125q0.828125 1.234375 2.40625 1.890625l8.109375 0q1.453125 -0.671875 2.21875 -1.921875q0.765625 -1.25 0.765625 -2.953125q0 -2.359375 -1.875 -3.671875q-1.890625 -1.328125 -5.46875 -1.328125z"
              fill-rule="nonzero"/>
        <path fill="#666666" d="m721.8696 537.4934l0 -438.67712l55.77954 0l0 438.67712z" fill-rule="evenodd"/>
        <path stroke="#999999" stroke-width="4.0" stroke-linejoin="round" stroke-linecap="butt"
              d="m721.8696 537.4934l0 -438.67712l55.77954 0l0 438.67712z" fill-rule="evenodd"/>
        <path fill="#ffffff"
              d="m752.21375 392.0611l9.265625 0l0 1.921875l-22.75 0l0 -7.75q0 -3.546875 1.8125 -5.59375q1.8125 -2.0625 4.984375 -2.0625q3.203125 0 4.953125 1.984375q1.734375 1.96875 1.734375 5.71875l0 5.78125zm-1.625 0l0 -5.828125q0 -2.796875 -1.328125 -4.265625q-1.328125 -1.46875 -3.703125 -1.46875q-2.359375 0 -3.75 1.46875q-1.40625 1.453125 -1.4375 4.140625l0 5.953125l10.21875 0zm11.203125 -23.6875q0 2.15625 -1.0625 3.90625q-1.0625 1.734375 -2.953125 2.703125q-1.90625 0.96875 -4.265625 0.96875l-0.671875 0q-2.4375 0 -4.390625 -0.9375q-1.953125 -0.953125 -3.0625 -2.640625q-1.125 -1.6875 -1.125 -3.65625q0 -3.078125 2.109375 -4.875q2.09375 -1.8125 5.734375 -1.8125l1.046875 0l0 12.0625l0.359375 0q2.875 0 4.796875 -1.640625q1.90625 -1.65625 1.90625 -4.15625q0 -1.5 -0.546875 -2.640625q-0.546875 -1.15625 -1.75 -2.09375l0.890625 -1.171875q2.984375 2.0625 2.984375 5.984375zm-15.9375 0.34375q0 2.109375 1.546875 3.5625q1.546875 1.4375 4.15625 1.75l0 -10.140625l-0.203125 0q-2.4375 0.078125 -3.96875 1.390625q-1.53125 1.3125 -1.53125 3.4375zm0.3125 -18.140625q-0.109375 0.59375 -0.109375 1.265625q0 1.75 0.984375 2.96875q0.96875 1.203125 2.828125 1.71875l11.609375 0l0 1.859375l-16.90625 0l0 -1.828125l2.6875 -0.03125q-3.0 -1.484375 -3.0 -4.765625q0 -0.78125 0.203125 -1.234375l1.703125 0.046875zm-1.59375 -4.65625l2.75 -0.0625q-1.53125 -0.9375 -2.296875 -2.34375q-0.765625 -1.40625 -0.765625 -3.125q0 -4.0 3.28125 -5.078125q-1.578125 -0.90625 -2.421875 -2.421875q-0.859375 -1.515625 -0.859375 -3.34375q0 -5.4375 5.9375 -5.546875l11.28125 0l0 1.875l-11.140625 0q-2.265625 0.015625 -3.359375 0.984375q-1.09375 0.953125 -1.09375 3.125q0.03125 2.015625 1.3125 3.40625q1.265625 1.390625 3.09375 1.546875l11.1875 0l0 1.875l-11.28125 0q-2.171875 0.015625 -3.234375 1.03125q-1.078125 1.0 -1.078125 3.09375q0 1.765625 1.015625 3.03125q1.0 1.265625 2.984375 1.875l11.59375 0l0 1.875l-16.90625 0l0 -1.796875zm16.90625 -28.75l0 1.875l-16.90625 0l0 -1.875l16.90625 0zm-21.796875 2.203125q-0.53125 0 -0.890625 -0.34375q-0.375 -0.34375 -0.375 -0.9375q0 -0.59375 0.375 -0.9375q0.359375 -0.359375 0.890625 -0.359375q0.53125 0 0.890625 0.359375q0.359375 0.34375 0.359375 0.9375q0 0.59375 -0.359375 0.9375q-0.359375 0.34375 -0.890625 0.34375zm17.5 -17.40625q-1.390625 0 -2.234375 1.125q-0.84375 1.109375 -1.3125 3.359375q-0.484375 2.25 -1.09375 3.5q-0.625 1.234375 -1.515625 1.84375q-0.890625 0.59375 -2.15625 0.59375q-2.0 0 -3.296875 -1.671875q-1.3125 -1.671875 -1.3125 -4.28125q0 -2.828125 1.40625 -4.53125q1.390625 -1.71875 3.640625 -1.71875l0 1.875q-1.484375 0 -2.46875 1.25q-0.984375 1.234375 -0.984375 3.125q0 1.84375 0.828125 2.96875q0.8125 1.109375 2.125 1.109375q1.265625 0 1.96875 -0.921875q0.6875 -0.9375 1.265625 -3.390625q0.578125 -2.46875 1.234375 -3.6875q0.65625 -1.234375 1.578125 -1.828125q0.921875 -0.59375 2.234375 -0.59375q2.140625 0 3.421875 1.734375q1.28125 1.71875 1.28125 4.5q0 2.953125 -1.421875 4.796875q-1.4375 1.828125 -3.625 1.828125l0 -1.875q1.640625 -0.109375 2.5625 -1.375q0.90625 -1.28125 0.90625 -3.375q0 -1.953125 -0.859375 -3.15625q-0.859375 -1.203125 -2.171875 -1.203125zm0 -16.203125q-1.390625 0 -2.234375 1.125q-0.84375 1.109375 -1.3125 3.359375q-0.484375 2.25 -1.09375 3.5q-0.625 1.234375 -1.515625 1.84375q-0.890625 0.59375 -2.15625 0.59375q-2.0 0 -3.296875 -1.671875q-1.3125 -1.671875 -1.3125 -4.28125q0 -2.828125 1.40625 -4.53125q1.390625 -1.71875 3.640625 -1.71875l0 1.875q-1.484375 0 -2.46875 1.25q-0.984375 1.234375 -0.984375 3.125q0 1.84375 0.828125 2.96875q0.8125 1.109375 2.125 1.109375q1.265625 0 1.96875 -0.921875q0.6875 -0.9375 1.265625 -3.390625q0.578125 -2.46875 1.234375 -3.6875q0.65625 -1.234375 1.578125 -1.828125q0.921875 -0.59375 2.234375 -0.59375q2.140625 0 3.421875 1.734375q1.28125 1.71875 1.28125 4.5q0 2.953125 -1.421875 4.796875q-1.4375 1.828125 -3.625 1.828125l0 -1.875q1.640625 -0.109375 2.5625 -1.375q0.90625 -1.28125 0.90625 -3.375q0 -1.953125 -0.859375 -3.15625q-0.859375 -1.203125 -2.171875 -1.203125zm4.296875 -8.1718445l0 1.875l-16.90625 0l0 -1.875l16.90625 0zm-21.796875 2.203125q-0.53125 0 -0.890625 -0.34375q-0.375 -0.34375 -0.375 -0.9375q0 -0.59375 0.375 -0.9375q0.359375 -0.359375 0.890625 -0.359375q0.53125 0 0.890625 0.359375q0.359375 0.34375 0.359375 0.9375q0 0.59375 -0.359375 0.9375q-0.359375 0.34375 -0.890625 0.34375zm13.09375 -6.25q-2.4375 0 -4.390625 -0.9375q-1.953125 -0.953125 -3.03125 -2.671875q-1.09375 -1.734375 -1.09375 -3.921875q0 -3.375 2.375 -5.46875q2.359375 -2.09375 6.265625 -2.09375l0.390625 0q2.453125 0 4.421875 0.953125q1.953125 0.9375 3.015625 2.65625q1.0625 1.71875 1.0625 3.921875q0 3.359375 -2.359375 5.46875q-2.375 2.09375 -6.28125 2.09375l-0.375 0zm0.515625 -1.875q3.03125 0 4.984375 -1.5625q1.9375 -1.578125 1.9375 -4.125q0 -2.53125 -1.9375 -4.09375q-1.953125 -1.578125 -5.140625 -1.578125l-0.359375 0q-1.9375 0 -3.546875 0.71875q-1.609375 0.71875 -2.484375 2.015625q-0.890625 1.296875 -0.890625 2.96875q0 2.5 1.96875 4.078125q1.953125 1.578125 5.125 1.578125l0.34375 0zm-8.71875 -18.859375l2.890625 -0.0625q-1.5625 -0.953125 -2.375 -2.375q-0.828125 -1.421875 -0.828125 -3.140625q0 -2.71875 1.53125 -4.046875q1.53125 -1.328125 4.59375 -1.34375l11.09375 0l0 1.859375l-11.109375 0q-2.265625 0.015625 -3.375 0.96875q-1.109375 0.9375 -1.109375 3.015625q0 1.734375 1.09375 3.078125q1.078125 1.328125 2.921875 1.96875l11.578125 0l0 1.859375l-16.90625 0l0 -1.78125z"
              fill-rule="nonzero"/>
    </g>
</svg>